<?xml version="1.0" encoding="utf-8" standalone="no"?>
<!-- Generator: DataGraph - https://www.visualdatatools.com/DataGraph/index.html  --><!DOCTYPE svg PUBLIC "-//W3C//DTD SVG 1.1//EN" "http://www.w3.org/Graphics/SVG/1.1/DTD/svg11.dtd">
<svg width="563" height="402" version="1.1" xmlns="http://www.w3.org/2000/svg" xmlns:xlink="http://www.w3.org/1999/xlink">
<g>
  <!-- Background -->
  <g id="Background">
    <defs>
      <clipPath id="clipPath">
        <rect x="74.5" y="18.5" width="473" height="339"/>
      </clipPath>
    </defs>
    <!-- Grid -->
    <g id="Grid" clip-path="url(#clipPath)">
      <path d="M 74.5 312.3 L 547.5 312.3 M 74.5 267.1 L 547.5 267.1 M 74.5 221.9 L 547.5 221.9 M 74.5 176.7 L 547.5 176.7 
               M 74.5 131.5 L 547.5 131.5 M 74.5 86.3 L 547.5 86.3 M 74.5 41.1 L 547.5 41.1 "
        stroke="black" stroke-dasharray="0.00997506,3.99002" stroke-linecap="round" fill="none" stroke-width="0.5"/>
    </g>
  </g>
  <!-- Commands -->
  <g id="Commands">
    <!-- bubble_sort vs size -->
    <g id="bubble_sort_vs_size">
      <defs>
        <clipPath id="clipPath2">
          <rect x="74.5" y="18.5" width="473" height="339"/>
        </clipPath>
      </defs>
      <g clip-path="url(#clipPath2)">
        <path d="M 130.296 357.364 L 154.065 357.455 L 188.445 357.184 L 201.726 357.229 L 223.574 356.822 
                 L 232.795 356.867 L 241.164 356.596 L 248.824 356.641 L 262.439 355.963 L 268.549 355.421 
                 L 274.273 355.782 L 284.737 355.104 L 289.549 355.24 L 294.118 354.743 L 298.467 354.426 
                 L 302.617 354.607 L 306.585 353.748 L 310.387 352.799 L 314.036 353.206 L 317.543 353.206 
                 L 320.92 353.025 L 324.175 352.347 L 327.317 352.121 L 330.354 351.443 L 333.293 350.268 
                 L 336.139 350.675 L 338.898 349.816 L 341.576 350.178 L 344.177 348.912 L 346.705 348.867 
                 L 351.56 347.918 L 353.893 348.008 L 356.167 347.556 L 358.386 346.788 L 360.552 345.658 
                 L 362.667 345.432 L 364.734 344.256 L 366.755 344.663 L 370.666 342.855 L 372.56 339.33 
                 L 374.415 342.494 L 376.233 341.454 L 378.015 341.68 L 379.763 340.098 L 381.478 339.51 
                 L 383.161 339.194 L 384.813 338.154 L 388.03 337.25 L 389.596 337.205 L 391.136 335.578 
                 L 392.65 336.075 L 394.14 332.73 L 395.605 333.68 L 397.047 333.047 L 398.466 321.837 
                 L 399.863 330.922 L 401.24 331.148 L 402.595 330.47 L 403.931 328.075 L 405.247 328.708 
                 L 406.544 327.126 L 407.823 327.758 L 409.084 324.504 L 410.328 324.323 L 411.555 321.837 
                 L 412.766 322.244 L 413.961 321.792 L 415.14 319.532 L 416.304 320.165 L 417.453 318.583 
                 L 418.588 316.504 L 419.708 315.328 L 420.816 311.577 L 421.909 317.182 L 422.99 316.278 
                 L 424.058 312.119 L 425.113 313.52 L 426.157 313.882 L 427.188 309.046 L 428.208 309.226 
                 L 429.216 308.006 L 430.214 308.729 L 431.2 305.791 L 432.176 306.108 L 433.142 302.898 
                 L 434.097 304.074 L 435.042 302.175 L 435.978 299.825 L 436.904 300.096 L 437.821 296.887 
                 L 438.728 294.898 L 439.627 298.062 L 440.516 295.802 L 441.397 283.824 L 442.27 289.248 
                 L 443.134 292.005 L 443.99 286.807 L 444.838 285.994 L 445.678 286.807 L 446.51 283.101 
                 L 447.335 280.389 L 448.153 278.129 L 448.963 282.287 L 449.766 279.666 L 450.562 270.128 
                 L 451.35 276.773 L 452.133 278.219 L 452.908 274.603 L 453.677 276.728 L 454.439 270.309 
                 L 455.195 270.761 L 455.945 265.563 L 456.689 267.642 L 457.426 263.032 L 458.158 256.704 
                 L 458.883 260.41 L 459.603 260.365 L 461.026 256.116 L 461.73 255.212 L 462.427 252.5 
                 L 463.12 244.003 L 463.807 256.749 L 464.489 248.297 L 465.166 247.845 L 465.838 247.709 
                 L 466.505 247.709 L 467.167 246.398 L 467.824 244.184 L 468.477 241.517 L 469.768 234.33 
                 L 471.041 239.212 L 471.671 225.335 L 472.296 232.025 L 472.917 220.454 L 473.534 227.957 
                 L 474.147 225.742 L 474.756 224.25 L 475.361 220.544 L 475.961 217.696 L 476.558 219.278 
                 L 477.74 206.306 L 478.325 210.6 L 478.906 200.656 L 479.484 210.193 L 480.058 199.029 
                 L 480.628 202.012 L 481.195 201.289 L 481.758 204.272 L 482.318 200.52 L 482.874 200.023 
                 L 483.427 194.464 L 483.977 182.938 L 484.523 194.418 L 485.066 178.689 L 485.606 180.994 
                 L 486.143 179.954 L 486.676 185.695 L 487.206 184.339 L 487.734 168.067 L 488.258 177.559 
                 L 488.779 179.322 L 489.297 172.813 L 489.812 173.762 L 490.325 164.134 L 490.834 169.152 
                 L 491.341 169.061 L 491.844 156.179 L 492.345 167.886 L 492.844 156.767 L 493.339 158.982 
                 L 493.832 152.247 L 494.322 139.003 L 494.81 148.766 L 495.295 150.71 L 495.777 143.342 
                 L 496.257 142.845 L 496.734 142.122 L 497.209 130.596 L 497.681 132.359 L 498.151 135.523 
                 L 498.618 123.861 L 499.083 129.33 L 499.546 137.828 L 500.006 119.793 L 500.464 119.206 
                 L 500.919 116.268 L 501.373 107.68 L 501.824 116.9 L 502.273 115.77 "
          stroke="rgb(228,28,28)" fill="none" stroke-width="0.5"/>
      </g>
    </g>
    <!-- insertion_sort vs size -->
    <g id="insertion_sort_vs_size">
      <defs>
        <clipPath id="clipPath3">
          <rect x="74.5" y="18.5" width="473" height="339"/>
        </clipPath>
      </defs>
      <g clip-path="url(#clipPath3)">
        <path d="M 130.296 357.41 L 188.445 357.41 L 201.726 357.274 L 248.824 357.274 L 255.887 357.138 
                 L 274.273 357.048 L 284.737 356.912 L 294.118 356.912 L 302.617 356.822 L 306.585 356.551 
                 L 310.387 356.596 L 314.036 356.506 L 317.543 356.596 L 324.175 356.415 L 327.317 355.873 
                 L 330.354 356.28 L 336.139 356.008 L 338.898 355.33 L 341.576 356.008 L 344.177 355.692 
                 L 346.705 355.782 L 349.165 355.511 L 356.167 355.602 L 358.386 355.285 L 364.734 354.788 
                 L 366.755 354.924 L 370.666 354.562 L 372.56 354.02 L 374.415 354.607 L 376.233 354.2 
                 L 378.015 354.472 L 379.763 354.11 L 383.161 353.839 L 384.813 353.568 L 386.436 353.703 
                 L 388.03 353.432 L 389.596 353.522 L 391.136 352.98 L 392.65 353.206 L 394.14 352.302 
                 L 395.605 352.799 L 397.047 352.664 L 398.466 352.121 L 401.24 352.302 L 402.595 352.121 
                 L 403.931 351.534 L 405.247 351.94 L 406.544 351.579 L 407.823 351.986 L 409.084 350.946 
                 L 410.328 350.991 L 411.555 350.268 L 412.766 350.72 L 413.961 350.675 L 415.14 349.816 
                 L 416.304 350.223 L 418.588 349.59 L 419.708 349.5 L 420.816 349.274 L 421.909 349.952 
                 L 422.99 350.132 L 424.058 347.918 L 425.113 348.957 L 426.157 349.138 L 427.188 347.963 
                 L 428.208 348.144 L 429.216 347.872 L 430.214 348.234 L 431.2 347.556 L 432.176 347.827 
                 L 433.142 347.059 L 434.097 347.24 L 435.042 347.014 L 435.978 346.562 L 436.904 346.607 
                 L 437.821 345.703 L 438.728 345.07 L 439.627 346.2 L 440.516 345.974 L 441.397 344.98 
                 L 442.27 344.437 L 443.134 345.07 L 443.99 344.121 L 444.838 343.714 L 445.678 344.03 
                 L 446.51 343.398 L 447.335 342.403 L 448.153 342.132 L 448.963 343.398 L 450.562 342.042 
                 L 452.133 342.72 L 452.908 341.635 L 453.677 342.765 L 454.439 340.866 L 455.195 340.821 
                 L 455.945 339.51 L 456.689 340.279 L 457.426 338.742 L 458.158 339.646 L 459.603 337.476 
                 L 460.318 338.606 L 461.026 337.883 L 461.73 337.793 L 462.427 337.205 L 463.12 337.25 
                 L 463.807 338.38 L 464.489 336.392 L 465.166 335.985 L 465.838 336.663 L 466.505 336.844 
                 L 467.167 337.341 L 467.824 336.075 L 468.477 335.894 L 469.125 334.855 L 469.768 334.177 
                 L 470.407 336.12 L 471.041 335.216 L 471.671 333.544 L 472.296 333.589 L 472.917 327.578 
                 L 473.534 333.047 L 474.147 329.069 L 474.756 332.55 L 475.361 326.99 L 475.961 331.013 
                 L 476.558 331.42 L 477.151 329.792 L 477.74 330.244 L 478.325 329.386 L 478.906 329.883 
                 L 479.484 329.114 L 480.058 327.035 L 480.628 327.984 L 481.195 326.357 L 481.758 328.436 
                 L 482.318 327.306 L 482.874 327.08 L 483.427 327.261 L 483.977 321.114 L 484.523 327.713 
                 L 485.066 324.052 L 485.606 324.278 L 486.143 321.928 L 486.676 326.222 L 487.206 325.046 
                 L 487.734 324.685 L 488.258 322.651 L 488.779 324.097 L 489.297 322.606 L 489.812 323.69 
                 L 490.325 322.47 L 491.341 322.651 L 491.844 309.633 L 492.345 321.611 L 492.844 320.617 
                 L 493.339 321.34 L 493.832 318.221 L 494.322 317.091 L 494.81 319.125 L 495.295 319.035 
                 L 495.777 317.814 L 496.257 317.091 L 496.734 316.865 L 497.209 316.413 L 497.681 315.419 
                 L 498.151 315.148 L 498.618 313.566 L 499.546 316.775 L 500.006 311.441 L 500.464 313.159 
                 L 500.919 312.888 L 501.373 311.803 L 501.824 313.114 L 502.273 313.249 "
          stroke="rgb(55,126,184)" fill="none" stroke-width="0.5"/>
      </g>
    </g>
    <!-- selection_sort vs size -->
    <g id="selection_sort_vs_size">
      <defs>
        <clipPath id="clipPath4">
          <rect x="74.5" y="18.5" width="473" height="339"/>
        </clipPath>
      </defs>
      <g clip-path="url(#clipPath4)">
        <path d="M 130.296 357.364 L 201.726 357.003 L 213.307 356.912 L 255.887 356.144 L 262.439 355.828 
                 L 268.549 355.782 L 279.656 355.014 L 284.737 353.342 L 289.549 354.426 L 294.118 354.155 
                 L 298.467 354.065 L 302.617 353.658 L 306.585 353.116 L 310.387 352.935 L 324.175 351.308 
                 L 327.317 350.178 L 330.354 349.816 L 333.293 349.635 L 336.139 349.274 L 338.898 343.036 
                 L 341.576 348.415 L 344.177 346.381 L 346.705 347.285 L 349.165 346.516 L 351.56 346.064 
                 L 353.893 345.206 L 356.167 344.934 L 358.386 343.94 L 360.552 343.759 L 362.667 342.72 
                 L 364.734 342.132 L 366.755 342.132 L 368.731 340.776 L 370.666 340.008 L 372.56 339.51 
                 L 376.233 338.109 L 378.015 337.205 L 379.763 336.437 L 386.436 332.911 L 388.03 332.55 
                 L 389.596 331.6 L 391.136 331.6 L 392.65 329.114 L 395.605 327.261 L 397.047 326.312 
                 L 398.466 325.092 L 399.863 324.323 L 401.24 324.64 L 402.595 322.154 L 403.931 321.747 
                 L 405.247 319.894 L 406.544 319.622 L 407.823 309.091 L 409.084 316.549 L 410.328 316.956 
                 L 411.555 316.187 L 412.766 313.204 L 413.961 313.927 L 415.14 312.345 L 416.304 300.322 
                 L 417.453 310.402 L 419.708 307.554 L 420.816 304.435 L 421.909 304.48 L 422.99 304.028 
                 L 424.058 300.322 L 425.113 302.627 L 426.157 298.017 L 427.188 297.248 L 428.208 295.395 
                 L 429.216 295.35 L 430.214 292.412 L 431.2 292.186 L 432.176 289.971 L 433.142 287.44 
                 L 434.097 287.666 L 435.042 286.22 L 435.978 283.282 L 436.904 282.875 L 437.821 281.609 
                 L 438.728 280.118 L 439.627 280.57 L 440.516 277.541 L 441.397 275.914 L 442.27 273.835 
                 L 443.134 274.513 L 443.99 270.264 L 444.838 268.772 L 445.678 267.507 L 446.51 265.834 
                 L 447.335 263.755 L 448.153 255.077 L 448.963 260.546 L 449.766 259.1 L 450.562 256.568 
                 L 451.35 256.162 L 452.133 247.348 L 452.908 251.868 L 454.439 248.478 L 455.195 246.579 
                 L 455.945 239.076 L 456.689 241.924 L 457.426 238.082 L 458.158 238.895 L 458.883 236.68 
                 L 459.603 231.211 L 460.318 233.11 L 461.026 230.352 L 461.73 230.759 L 462.427 227.776 
                 L 463.12 225.878 L 463.807 224.341 L 464.489 214.804 L 465.166 221.132 L 465.838 211.866 
                 L 466.505 217.109 L 467.167 215.527 L 467.824 214.623 L 468.477 210.6 L 469.125 209.154 
                 L 469.768 208.566 L 470.407 202.464 L 471.041 203.006 L 471.671 198.215 L 472.296 197.854 
                 L 473.534 188.859 L 474.147 187.141 L 474.756 187.412 L 475.361 185.559 L 475.961 181.22 
                 L 476.558 179.096 L 477.151 177.423 L 477.74 179.005 L 478.325 174.44 L 478.906 173.626 
                 L 479.484 172.632 L 480.058 165.626 L 480.628 162.507 L 481.195 164.948 L 481.758 160.202 
                 L 482.318 160.338 L 482.874 141.354 L 483.427 150.032 L 483.977 147.998 L 484.523 143.297 
                 L 485.066 143.342 L 485.606 141.715 L 486.143 138.461 L 486.676 131.726 L 487.206 132.675 
                 L 487.734 136.02 L 488.258 131.681 L 488.779 128.924 L 489.297 113.691 L 489.812 124.358 
                 L 490.325 117.307 L 490.834 114.279 L 491.341 114.053 L 491.844 107.996 L 492.345 109.623 
                 L 492.844 108.267 L 493.339 94.2552 L 493.832 100.493 L 494.322 100.448 L 494.81 91.0912 
                 L 495.295 93.8032 L 495.777 90.5036 L 496.257 88.9668 L 496.734 85.3056 L 497.209 78.0736 
                 L 497.681 80.1528 L 498.151 76.8532 L 499.083 64.604 L 499.546 66.9092 L 500.006 65.6888 
                 L 500.464 54.886 L 500.919 58.6828 L 501.373 55.7448 L 501.824 40.3316 L 502.273 48.8292 "
          stroke="rgb(77,175,74)" fill="none" stroke-width="0.5"/>
      </g>
    </g>
    <!-- merge_sort vs size -->
    <g id="merge_sort_vs_size">
      <defs>
        <clipPath id="clipPath5">
          <rect x="74.5" y="18.5" width="473" height="339"/>
        </clipPath>
      </defs>
      <g clip-path="url(#clipPath5)">
        <path d="M 130.296 357.319 L 172.876 357.229 L 241.164 356.958 L 279.656 356.596 L 284.737 356.641 
                 L 289.549 356.506 L 294.118 356.506 L 302.617 356.325 L 310.387 356.325 L 317.543 356.144 
                 L 324.175 356.099 L 330.354 355.918 L 336.139 355.828 L 338.898 354.652 L 341.576 355.737 
                 L 346.705 355.511 L 370.666 355.059 L 372.56 354.833 L 376.233 354.743 L 384.813 354.472 
                 L 386.436 354.336 L 389.596 354.336 L 392.65 354.291 L 394.14 354.155 L 395.605 354.246 
                 L 397.047 354.065 L 399.863 354.02 L 407.823 353.432 L 409.084 353.568 L 411.555 353.613 
                 L 412.766 353.342 L 418.588 352.98 L 419.708 353.07 L 420.816 352.935 L 421.909 353.025 
                 L 425.113 352.528 L 426.157 352.528 L 427.188 352.347 L 429.216 352.257 L 430.214 352.076 
                 L 435.042 351.895 L 435.978 351.624 L 436.904 351.805 L 437.821 351.488 L 440.516 351.669 
                 L 441.397 351.262 L 442.27 351.488 L 443.134 351.308 L 443.99 351.353 L 444.838 351.082 
                 L 445.678 351.217 L 446.51 350.991 L 447.335 351.036 L 448.153 350.765 L 448.963 350.901 
                 L 449.766 350.584 L 450.562 350.72 L 452.133 350.358 L 452.908 350.358 L 453.677 350.584 
                 L 454.439 350.042 L 455.195 350.223 L 455.945 350.042 L 456.689 350.132 L 457.426 349.952 
                 L 458.158 350.042 L 458.883 349.771 L 459.603 349.906 L 460.318 349.726 L 461.73 349.635 
                 L 462.427 349.59 L 463.12 348.957 L 463.807 349.5 L 464.489 349.364 L 465.166 349.409 
                 L 465.838 349.138 L 466.505 349.319 L 467.167 348.731 L 467.824 349.093 L 470.407 348.776 
                 L 471.671 348.686 L 472.917 348.415 L 473.534 348.098 L 474.147 348.144 L 475.961 347.827 
                 L 476.558 347.918 L 477.151 347.692 L 477.74 347.918 L 478.325 347.692 L 478.906 347.737 
                 L 479.484 347.646 L 480.058 347.42 L 480.628 347.059 L 481.195 347.42 L 481.758 347.104 
                 L 482.318 347.285 L 482.874 346.562 L 483.427 346.788 L 483.977 346.652 L 484.523 346.833 
                 L 485.066 346.471 L 485.606 346.652 L 486.143 346.562 L 486.676 346.652 L 488.258 346.381 
                 L 488.779 346.471 L 489.297 346.2 L 489.812 346.064 L 490.325 346.11 L 490.834 345.793 
                 L 491.341 345.206 L 491.844 346.019 L 492.345 345.658 L 492.844 345.838 L 493.339 344.844 
                 L 493.832 345.522 L 494.322 345.341 L 494.81 345.296 L 495.295 345.115 L 495.777 345.341 
                 L 496.257 344.844 L 496.734 345.115 L 497.209 343.533 L 497.681 344.211 L 498.151 344.618 
                 L 498.618 344.889 L 499.083 344.211 L 499.546 344.573 L 500.006 344.302 L 500.464 343.714 
                 L 500.919 344.076 L 501.373 344.302 L 501.824 344.03 L 502.273 344.211 "
          stroke="rgb(152,78,163)" fill="none" stroke-width="0.5"/>
      </g>
    </g>
    <!-- quick_sort_array vs size -->
    <g id="quick_sort_array_vs_size">
      <defs>
        <clipPath id="clipPath6">
          <rect x="74.5" y="18.5" width="473" height="339"/>
        </clipPath>
      </defs>
      <g clip-path="url(#clipPath6)">
        <path d="M 130.296 355.963 L 154.065 355.828 L 172.876 355.421 L 188.445 354.743 L 201.726 354.652 
                 L 213.307 354.426 L 223.574 354.02 L 232.795 353.794 L 241.164 353.07 L 248.824 353.116 
                 L 255.887 351.895 L 268.549 351.353 L 274.273 350.358 L 279.656 350.675 L 284.737 350.584 
                 L 289.549 349.454 L 294.118 349.409 L 298.467 349.228 L 302.617 348.415 L 306.585 348.37 
                 L 310.387 348.008 L 314.036 348.279 L 317.543 348.008 L 320.92 346.788 L 324.175 346.788 
                 L 327.317 345.115 L 330.354 344.573 L 333.293 345.025 L 336.139 345.658 L 338.898 344.256 
                 L 344.177 343.759 L 349.165 342.9 L 351.56 342.855 L 353.893 341.996 L 356.167 342.177 
                 L 358.386 341.454 L 362.667 339.691 L 364.734 340.053 L 366.755 339.42 L 368.731 339.646 
                 L 370.666 338.561 L 372.56 339.013 L 374.415 338.878 L 376.233 337.16 L 378.015 337.793 
                 L 379.763 336.979 L 381.478 336.708 L 383.161 336.166 L 384.813 334.764 L 386.436 336.166 
                 L 388.03 335.081 L 389.596 334.358 L 391.136 333.228 L 392.65 333.951 L 394.14 334.448 
                 L 395.605 332.459 L 397.047 331.239 L 398.466 331.465 L 399.863 332.776 L 401.24 329.838 
                 L 402.595 330.877 L 403.931 329.566 L 405.247 330.335 L 407.823 328.527 L 409.084 328.843 
                 L 410.328 328.301 L 411.555 328.165 L 412.766 328.301 L 413.961 327.216 L 415.14 326.99 
                 L 416.304 326.402 L 417.453 326.448 L 418.588 326.9 L 419.708 314.876 L 420.816 325.77 
                 L 421.909 325.815 L 422.99 323.962 L 424.058 324.549 L 425.113 323.781 L 426.157 323.148 
                 L 427.188 321.747 L 428.208 321.792 L 429.216 321.024 L 430.214 320.12 L 431.2 320.617 
                 L 433.142 320.3 L 434.097 319.848 L 435.042 318.538 L 435.978 318.402 L 437.821 318.312 
                 L 438.728 317.272 L 439.627 315.238 L 440.516 318.899 L 441.397 315.509 L 442.27 316.097 
                 L 443.134 315.419 L 443.99 313.656 L 444.838 313.611 L 445.678 313.927 L 446.51 314.65 
                 L 447.335 313.068 L 448.963 312.707 L 449.766 311.306 L 450.562 311.622 L 451.35 311.034 
                 L 452.133 308.91 L 452.908 309.046 L 453.677 310.989 L 455.195 308.684 L 455.945 308.639 
                 L 456.689 307.644 L 457.426 308.322 L 458.158 308.187 L 458.883 306.379 L 459.603 305.836 
                 L 460.318 305.565 L 461.026 305.791 L 461.73 305.746 L 462.427 306.424 L 463.12 306.876 
                 L 463.807 306.514 L 464.489 305.023 L 465.166 305.52 L 465.838 305.384 L 466.505 304.48 
                 L 467.167 298.604 L 467.824 302.311 L 468.477 293.542 L 469.125 301.271 L 469.768 302.446 
                 L 470.407 301.452 L 471.041 299.78 L 471.671 300.232 L 472.296 300.412 L 472.917 297.068 
                 L 473.534 297.61 L 474.147 298.514 L 474.756 296.028 L 475.361 296.435 L 475.961 297.474 
                 L 476.558 295.44 L 477.151 296.164 L 477.74 295.847 L 478.906 295.892 L 479.484 293.632 
                 L 480.058 293.994 L 480.628 294.039 L 481.195 292.819 L 481.758 289.926 L 482.318 288.434 
                 L 482.874 290.378 L 483.427 290.514 L 483.977 290.107 L 484.523 290.966 L 485.066 290.514 
                 L 485.606 282.92 L 486.143 288.48 L 486.676 290.152 L 487.206 288.751 L 487.734 289.158 
                 L 488.258 286.084 L 488.779 288.254 L 489.297 286.174 L 489.812 286.988 L 490.325 284.909 
                 L 490.834 285.044 L 491.341 287.35 L 491.844 286.672 L 492.345 286.626 L 492.844 284.095 
                 L 493.339 284.321 L 493.832 285.406 L 494.322 283.824 L 494.81 278.762 L 495.295 280.931 
                 L 495.777 280.298 L 496.257 279.304 L 496.734 281.383 L 497.209 282.152 L 497.681 276.728 
                 L 498.151 280.66 L 498.618 277.722 L 499.083 278.084 L 499.546 278.174 L 500.006 277.903 
                 L 500.464 278.536 L 501.373 276.908 L 501.824 276.818 L 502.273 268.501 "
          stroke="rgb(255,127,0)" fill="none" stroke-width="0.5"/>
      </g>
    </g>
    <!-- quick_sort_in_place vs size -->
    <g id="quick_sort_in_place_vs_size">
      <defs>
        <clipPath id="clipPath7">
          <rect x="74.5" y="18.5" width="473" height="339"/>
        </clipPath>
      </defs>
      <g clip-path="url(#clipPath7)">
        <path d="M 130.296 356.37 L 154.065 355.782 L 172.876 355.466 L 188.445 354.924 L 201.726 355.104 
                 L 213.307 354.698 L 223.574 353.974 L 232.795 353.613 L 241.164 353.116 L 248.824 353.251 
                 L 255.887 348.053 L 262.439 351.624 L 268.549 352.031 L 274.273 351.082 L 279.656 350.81 
                 L 284.737 350.765 L 289.549 350.358 L 294.118 349.635 L 298.467 349.906 L 302.617 349.364 
                 L 306.585 348.55 L 310.387 349.093 L 314.036 347.646 L 320.92 347.149 L 324.175 347.42 
                 L 327.317 347.511 L 330.354 339.782 L 333.293 346.245 L 336.139 344.708 L 341.576 344.573 
                 L 344.177 342.222 L 346.705 343.759 L 349.165 343.759 L 351.56 343.126 L 353.893 342.855 
                 L 356.167 341.68 L 358.386 342.313 L 360.552 341.861 L 362.667 341.816 L 364.734 340.414 
                 L 366.755 340.686 L 368.731 339.646 L 370.666 340.279 L 372.56 338.923 L 374.415 338.335 
                 L 376.233 338.652 L 378.015 338.335 L 379.763 338.245 L 381.478 337.341 L 383.161 336.572 
                 L 386.436 336.572 L 388.03 336.12 L 391.136 335.578 L 392.65 335.081 L 394.14 334.358 
                 L 395.605 334.267 L 397.047 333.273 L 398.466 333.906 L 399.863 333.318 L 401.24 332.956 
                 L 402.595 331.329 L 403.931 330.968 L 405.247 330.968 L 406.544 331.646 L 407.823 329.386 
                 L 409.084 331.103 L 410.328 329.928 L 411.555 319.894 L 412.766 329.114 L 413.961 328.843 
                 L 415.14 328.391 L 416.304 327.352 L 417.453 327.261 L 419.708 326.357 L 420.816 325.498 
                 L 421.909 326.402 L 422.99 324.594 L 424.058 326.176 L 425.113 324.278 L 426.157 324.142 
                 L 427.188 324.142 L 428.208 323.284 L 429.216 323.51 L 430.214 321.566 L 431.2 322.018 
                 L 432.176 321.566 L 433.142 320.12 L 434.097 320.074 L 435.042 320.662 L 435.978 319.442 
                 L 436.904 319.261 L 437.821 319.848 L 439.627 319.848 L 440.516 319.487 L 441.397 317.86 
                 L 442.27 317.995 L 443.134 307.554 L 443.99 316.232 L 444.838 315.78 L 445.678 309.724 
                 L 446.51 315.193 L 447.335 315.238 L 448.153 313.385 L 448.963 313.294 L 449.766 307.238 
                 L 450.562 312.616 L 451.35 312.119 L 452.133 312.345 L 452.908 311.984 L 453.677 312.933 
                 L 454.439 312.119 L 455.195 312.571 L 455.945 311.532 L 456.689 311.396 L 457.426 303.938 
                 L 458.158 310.763 L 459.603 306.695 L 460.318 307.192 L 461.026 307.464 L 461.73 307.87 
                 L 462.427 304.254 L 463.12 308.548 L 463.807 308.548 L 464.489 307.509 L 465.166 304.797 
                 L 465.838 306.379 L 466.505 306.65 L 467.167 301.768 L 467.824 306.153 L 468.477 298.74 
                 L 469.125 304.164 L 469.768 295.034 L 470.407 303.622 L 471.041 304.209 L 471.671 303.983 
                 L 472.296 301.814 L 472.917 300.322 L 473.534 300.774 L 474.147 298.966 L 474.756 300.051 
                 L 475.361 300.006 L 475.961 300.096 L 476.558 297.113 L 477.151 298.198 L 477.74 298.83 
                 L 478.325 292.412 L 478.906 300.367 L 479.484 296.028 L 480.058 296.39 L 480.628 292.954 
                 L 481.195 294.853 L 481.758 295.486 L 482.318 296.842 L 482.874 294.582 L 483.427 293.813 
                 L 483.977 291.96 L 484.523 286.446 L 485.066 293.226 L 486.143 290.875 L 486.676 293.271 
                 L 487.206 292.096 L 487.734 293.135 L 488.258 287.304 L 488.779 292.412 L 489.297 290.242 
                 L 489.812 288.977 L 490.325 290.242 L 490.834 289.067 L 491.341 289.203 L 491.844 288.208 
                 L 492.345 278.626 L 492.844 288.299 L 493.339 285.813 L 493.832 285.316 L 494.322 287.395 
                 L 494.81 285.903 L 495.295 286.22 L 495.777 283.914 L 496.257 286.717 L 496.734 285.451 
                 L 497.209 284.909 L 497.681 281.248 L 498.151 283.869 L 498.618 283.282 L 499.083 282.152 
                 L 499.546 282.513 L 500.006 282.513 L 500.464 281.474 L 500.919 282.061 L 501.824 278.4 
                 L 502.273 276.366 "
          stroke="rgb(152,169,234)" fill="none" stroke-width="0.5"/>
      </g>
    </g>
    <!-- Legend -->
    <g id="Legend">
      <rect x="95" y="31" width="200" height="90" stroke="black" fill="none" stroke-width="0.5"/>
      <defs>
        <clipPath id="clipPath8">
          <rect x="95" y="31" width="200" height="90"/>
        </clipPath>
      </defs>
      <g clip-path="url(#clipPath8)">
        <path d="M 100 39.5 L 114 39.5 "
          stroke="rgb(228,28,28)" fill="none" stroke-width="0.5"/>
        <g font-family="Helvetica" font-size="12" fill="black">
          <text x="119" y="44.3037">bubble</text>
          <text x="155.035" y="46.8139" font-size="9">s</text>
          <text x="159.535" y="44.3037">ort vs size</text>
        </g>
        <path d="M 100 54.5 L 114 54.5 "
          stroke="rgb(55,126,184)" fill="none" stroke-width="0.5"/>
        <g font-family="Helvetica" font-size="12" fill="black">
          <text x="119" y="58.7037">insertion</text>
          <text x="164.357" y="61.2139" font-size="9">s</text>
          <text x="168.857" y="58.7037">ort vs size</text>
        </g>
        <path d="M 100 68.5 L 114 68.5 "
          stroke="rgb(77,175,74)" fill="none" stroke-width="0.5"/>
        <g font-family="Helvetica" font-size="12" fill="black">
          <text x="119" y="73.1037">selection</text>
          <text x="166.361" y="75.6139" font-size="9">s</text>
          <text x="170.861" y="73.1037">ort vs size</text>
        </g>
        <path d="M 100 83.5 L 114 83.5 "
          stroke="rgb(152,78,163)" fill="none" stroke-width="0.5"/>
        <g font-family="Helvetica" font-size="12" fill="black">
          <text x="119" y="87.5037">merge</text>
          <text x="153.014" y="90.0139" font-size="9">s</text>
          <text x="157.514" y="87.5037">ort vs size</text>
        </g>
        <path d="M 100 97.5 L 114 97.5 "
          stroke="rgb(255,127,0)" fill="none" stroke-width="0.5"/>
        <g font-family="Helvetica" font-size="12" fill="black">
          <text x="119" y="101.904">quick</text>
          <text x="147.014" y="104.414" font-size="9">s</text>
          <text x="151.514" y="101.904">ort</text>
          <text x="165.518" y="104.414" font-size="9">a</text>
          <text x="170.523" y="101.904">rray vs size</text>
        </g>
        <path d="M 100 111.5 L 114 111.5 "
          stroke="rgb(152,169,234)" fill="none" stroke-width="0.5"/>
        <g font-family="Helvetica" font-size="12" fill="black">
          <text x="119" y="116.304">quick</text>
          <text x="147.014" y="118.814" font-size="9">s</text>
          <text x="151.514" y="116.304">ort</text>
          <text x="165.518" y="118.814" font-size="9">i</text>
          <text x="167.517" y="116.304">n</text>
          <text x="174.191" y="118.814" font-size="9">p</text>
          <text x="179.196" y="116.304">lace vs size</text>
        </g>
      </g>
    </g>
  </g>
  <!-- Foreground -->
  <g id="Foreground">
    <!-- Y Axis -->
    <g id="Y_Axis">
      <g transform="translate(14.0188,188) rotate(-90) translate(-14.0188,-188)" font-family="Helvetica" font-size="12" fill="black">
        <text x="-9.98711" y="188">time cost</text>
      </g>
      <!-- Y Labels -->
      <g id="Y_Labels">
        <g font-family="Helvetica" font-size="12" fill="black">
          <text x="57.4262" y="361.804">0</text>
        </g>
        <g font-family="Helvetica" font-size="12" fill="black">
          <text x="27.3969" y="316.604">0.0002</text>
        </g>
        <g font-family="Helvetica" font-size="12" fill="black">
          <text x="27.3969" y="271.404">0.0004</text>
        </g>
        <g font-family="Helvetica" font-size="12" fill="black">
          <text x="27.3969" y="226.204">0.0006</text>
        </g>
        <g font-family="Helvetica" font-size="12" fill="black">
          <text x="27.3969" y="181.004">0.0008</text>
        </g>
        <g font-family="Helvetica" font-size="12" fill="black">
          <text x="27.3969" y="135.804">0.0010</text>
        </g>
        <g font-family="Helvetica" font-size="12" fill="black">
          <text x="27.3969" y="90.6037">0.0012</text>
        </g>
        <g font-family="Helvetica" font-size="12" fill="black">
          <text x="27.3969" y="45.4037">0.0014</text>
        </g>
      </g>
      <path d="M 66.5 357.5 L 74.5 357.5 M 70.5 334.9 L 74.5 334.9 M 66.5 312.3 L 74.5 312.3 M 70.5 289.7 L 74.5 289.7 
               M 66.5 267.1 L 74.5 267.1 M 70.5 244.5 L 74.5 244.5 M 66.5 221.9 L 74.5 221.9 M 70.5 199.3 L 74.5 199.3 
               M 66.5 176.7 L 74.5 176.7 M 70.5 154.1 L 74.5 154.1 M 66.5 131.5 L 74.5 131.5 M 70.5 108.9 L 74.5 108.9 
               M 66.5 86.3 L 74.5 86.3 M 70.5 63.7 L 74.5 63.7 M 66.5 41.1 L 74.5 41.1 M 70.5 18.5 L 74.5 18.5 "
        stroke="black" fill="none" stroke-width="0.5"/>
    </g>
    <!-- X Axis -->
    <g id="X_Axis">
      <g font-family="Helvetica" font-size="12" fill="black">
        <text x="270.646" y="395">size of integers</text>
      </g>
      <g>
        <g font-family="Helvetica" font-size="12" fill="black">
          <text x="123.623" y="376.69">10</text>
        </g>
        <g font-family="Helvetica" font-size="12" fill="black">
          <text x="328.887" y="376.69">100</text>
        </g>
        <g font-family="Helvetica" font-size="12" fill="black">
          <text x="534.152" y="376.69">1000</text>
        </g>
      </g>
      <path d="M 130.296 365.5 L 130.296 357.5 M 338.898 365.5 L 338.898 357.5 M 547.5 365.5 L 547.5 357.5 
               M 84.0184 361.5 L 84.0184 357.5 M 97.9836 361.5 L 97.9836 357.5 M 110.081 361.5 L 110.081 357.5 
               M 120.751 361.5 L 120.751 357.5 M 193.092 361.5 L 193.092 357.5 M 229.825 361.5 L 229.825 357.5 
               M 255.887 361.5 L 255.887 357.5 M 276.103 361.5 L 276.103 357.5 M 292.62 361.5 L 292.62 357.5 
               M 306.585 361.5 L 306.585 357.5 M 318.683 361.5 L 318.683 357.5 M 329.353 361.5 L 329.353 357.5 
               M 401.694 361.5 L 401.694 357.5 M 438.427 361.5 L 438.427 357.5 M 464.489 361.5 L 464.489 357.5 
               M 484.705 361.5 L 484.705 357.5 M 501.222 361.5 L 501.222 357.5 M 515.187 361.5 L 515.187 357.5 
               M 527.284 361.5 L 527.284 357.5 M 537.955 361.5 L 537.955 357.5 "
        stroke="black" fill="none" stroke-width="0.5"/>
    </g>
    <g font-family="Helvetica" font-size="12" fill="black">
      <text x="239.311" y="14.0188">time vs size in small period</text>
    </g>
    <path d="M 547.5 357.5 L 547.5 18.5 L 74.5 18.5 L 74.5 357.5 L 547.5 357.5 z "
      stroke="black" stroke-linecap="square" fill="none" stroke-width="0.5"/>
  </g>
</g>
</svg>
