<?xml version="1.0" encoding="utf-8" standalone="no"?>
<!-- Generator: DataGraph - https://www.visualdatatools.com/DataGraph/index.html  --><!DOCTYPE svg PUBLIC "-//W3C//DTD SVG 1.1//EN" "http://www.w3.org/Graphics/SVG/1.1/DTD/svg11.dtd">
<svg width="563" height="402" version="1.1" xmlns="http://www.w3.org/2000/svg" xmlns:xlink="http://www.w3.org/1999/xlink">
<g>
  <!-- Background -->
  <g id="Background">
    <defs>
      <clipPath id="clipPath">
        <rect x="74.5" y="18.5" width="473" height="339"/>
      </clipPath>
    </defs>
    <!-- Grid -->
    <g id="Grid" clip-path="url(#clipPath)">
      <path d="M 74.5 329.25 L 547.5 329.25 M 74.5 301 L 547.5 301 M 74.5 272.75 L 547.5 272.75 M 74.5 244.5 L 547.5 244.5 
               M 74.5 216.25 L 547.5 216.25 M 74.5 188 L 547.5 188 M 74.5 159.75 L 547.5 159.75 M 74.5 131.5 L 547.5 131.5 
               M 74.5 103.25 L 547.5 103.25 M 74.5 75 L 547.5 75 M 74.5 46.75 L 547.5 46.75 "
        stroke="black" stroke-dasharray="0.00997506,3.99002" stroke-linecap="round" fill="none" stroke-width="0.5"/>
    </g>
  </g>
  <!-- Commands -->
  <g id="Commands">
    <!-- bubble_sort vs size -->
    <g id="bubble_sort_vs_size">
      <defs>
        <clipPath id="clipPath2">
          <rect x="74.5" y="18.5" width="473" height="339"/>
        </clipPath>
      </defs>
      <g clip-path="url(#clipPath2)">
        <path d="M 129.932 357.5 L 221.662 357.429 L 230.102 357.35 L 238.493 357.278 L 246.811 357.125 
                 L 261.456 356.502 L 269.809 355.709 L 271.892 355.479 L 278.147 354.333 L 280.247 353.907 
                 L 288.601 350.878 L 292.773 348.733 L 296.949 345.879 L 301.135 341.866 L 303.22 339.442 
                 L 305.308 336.651 L 307.397 333.211 L 309.479 329.387 L 311.568 325.221 L 313.661 320.162 
                 L 315.748 314.619 L 317.832 307.686 L 322.011 291.693 L 324.097 281.47 L 326.185 269.107 
                 L 328.275 254.259 L 330.362 240.37 L 332.451 221.378 L 334.538 201.018 L 336.626 176.646 
                 L 338.716 148.148 L 340.803 116.104 L 342.89 74.9141 "
          stroke="rgb(228,28,28)" fill="none" stroke-width="0.5"/>
      </g>
    </g>
    <!-- insertion_sort vs size -->
    <g id="insertion_sort_vs_size">
      <defs>
        <clipPath id="clipPath3">
          <rect x="74.5" y="18.5" width="473" height="339"/>
        </clipPath>
      </defs>
      <g clip-path="url(#clipPath3)">
        <path d="M 129.932 357.5 L 250.997 357.408 L 271.892 357.14 L 280.247 356.883 L 292.773 356.035 
                 L 299.041 355.281 L 303.22 354.666 L 307.397 353.674 L 309.479 353.151 L 315.748 350.931 
                 L 317.832 349.968 L 319.924 348.809 L 324.097 346.214 L 326.185 344.528 L 328.275 342.392 
                 L 330.362 340.468 L 334.538 334.709 L 336.626 330.904 L 338.716 327.592 L 340.803 322.796 
                 L 342.89 316.218 L 344.978 312.771 L 349.154 298.586 L 353.331 279.643 L 355.419 268.554 
                 L 357.505 255.03 L 359.594 240.095 L 361.681 223.372 L 363.769 203.707 L 370.033 117.852 
                 L 372.121 83.8637 L 374.209 46.9986 "
          stroke="rgb(55,126,184)" fill="none" stroke-width="0.5"/>
      </g>
    </g>
    <!-- selection_sort vs size -->
    <g id="selection_sort_vs_size">
      <defs>
        <clipPath id="clipPath4">
          <rect x="74.5" y="18.5" width="473" height="339"/>
        </clipPath>
      </defs>
      <g clip-path="url(#clipPath4)">
        <path d="M 129.932 357.5 L 223.767 357.397 L 242.612 357.139 L 259.36 356.395 L 265.633 355.841 
                 L 271.892 354.959 L 276.059 354.171 L 280.247 353.123 L 286.515 350.729 L 290.685 348.757 
                 L 292.773 347.319 L 294.868 346.013 L 296.949 344.383 L 299.041 341.867 L 301.135 340.031 
                 L 303.22 337.528 L 305.308 334.548 L 309.479 327.474 L 311.568 322.869 L 313.661 317.598 
                 L 315.748 311.823 L 319.924 297.389 L 322.011 288.474 L 324.097 278.415 L 326.185 266.747 
                 L 328.275 252.164 L 330.362 236.638 L 332.451 218.643 L 334.538 196.237 L 336.626 171.379 
                 L 338.716 148.278 L 340.803 113.742 L 342.89 75.8266 L 344.978 40.0457 "
          stroke="rgb(77,175,74)" fill="none" stroke-width="0.5"/>
      </g>
    </g>
    <!-- merge_sort vs size -->
    <g id="merge_sort_vs_size">
      <defs>
        <clipPath id="clipPath5">
          <rect x="74.5" y="18.5" width="473" height="339"/>
        </clipPath>
      </defs>
      <g clip-path="url(#clipPath5)">
        <path d="M 129.932 357.5 L 284.422 357.395 L 315.748 357.173 L 336.626 356.809 L 349.154 356.436 
                 L 351.242 356.246 L 353.331 356.247 L 365.858 355.495 L 370.033 355.18 L 376.297 354.588 
                 L 388.824 353.038 L 395.088 351.916 L 401.351 350.47 L 403.439 349.849 L 407.615 348.831 
                 L 411.79 347.353 L 415.966 345.626 L 418.054 344.947 L 420.142 343.411 L 422.23 342.983 
                 L 424.317 341.641 L 428.493 339.505 L 430.581 337.84 L 432.669 335.78 L 434.757 335.15 
                 L 436.844 333.272 L 441.02 328.905 L 443.108 326.842 L 445.196 325.091 L 447.284 321.949 
                 L 449.372 319.479 L 451.459 316.789 L 453.547 314.416 L 455.635 310.589 L 461.899 297.868 
                 L 463.986 293.414 L 466.074 290.28 L 468.162 283.158 L 470.25 280.087 L 472.338 274.105 
                 L 474.426 267.607 L 478.601 253.325 L 480.689 245.456 L 484.865 226.501 L 486.953 217.83 
                 L 489.04 206.06 L 491.128 195.823 L 493.216 181.183 L 495.304 170.135 L 497.392 155.629 
                 L 499.48 140.156 "
          stroke="rgb(152,78,163)" fill="none" stroke-width="0.5"/>
      </g>
    </g>
    <!-- quick_sort_array vs size -->
    <g id="quick_sort_array_vs_size">
      <defs>
        <clipPath id="clipPath6">
          <rect x="74.5" y="18.5" width="473" height="339"/>
        </clipPath>
      </defs>
      <g clip-path="url(#clipPath6)">
        <path d="M 129.932 357.497 L 232.224 357.401 L 263.526 357.22 L 269.809 357.126 L 276.059 357.078 
                 L 303.22 356.411 L 315.748 355.831 L 332.451 354.588 L 342.89 353.329 L 351.242 352.068 
                 L 353.331 351.498 L 355.419 351.223 L 359.594 350.332 L 363.769 349.188 L 367.945 347.635 
                 L 370.033 347.209 L 378.385 343.929 L 380.472 342.677 L 382.56 341.754 L 386.736 339.576 
                 L 388.824 338.036 L 392.999 335.542 L 399.263 330.22 L 401.351 327.749 L 405.527 323.582 
                 L 407.615 320.908 L 409.702 317.878 L 411.79 315.435 L 413.878 312.04 L 415.966 309.124 
                 L 418.054 305.618 L 420.142 300.827 L 422.23 298.337 L 424.317 288.608 L 426.405 286.913 
                 L 428.493 283.793 L 430.581 278.778 L 434.757 265.673 L 436.844 260.783 L 438.932 251.978 
                 L 441.02 246.484 L 447.284 219.152 L 453.547 187.933 L 455.635 171.846 L 457.723 161.55 
                 L 459.811 142.373 L 461.899 124.717 L 463.986 109.969 L 466.074 96.3259 L 468.162 76.2972 
                 L 470.25 57.5692 "
          stroke="rgb(255,127,0)" fill="none" stroke-width="0.5"/>
      </g>
    </g>
    <!-- quick_sort_in_place vs size -->
    <g id="quick_sort_in_place_vs_size">
      <defs>
        <clipPath id="clipPath7">
          <rect x="74.5" y="18.5" width="473" height="339"/>
        </clipPath>
      </defs>
      <g clip-path="url(#clipPath7)">
        <path d="M 129.932 357.497 L 238.493 357.382 L 263.526 357.227 L 290.685 356.796 L 301.135 356.53 
                 L 309.479 356.227 L 311.568 356.062 L 315.748 355.903 L 324.097 355.366 L 326.185 355.145 
                 L 328.275 355.116 L 338.716 354.026 L 342.89 353.462 L 344.978 353.1 L 347.066 352.977 
                 L 351.242 352.246 L 353.331 351.418 L 355.419 351.484 L 359.594 350.608 L 365.858 348.87 
                 L 367.945 347.55 L 370.033 347.58 L 372.121 346.911 L 374.209 346.063 L 376.297 345.357 
                 L 378.385 344.476 L 380.472 343.484 L 382.56 342.304 L 386.736 340.208 L 388.824 339.132 
                 L 390.912 337.819 L 392.999 335.85 L 395.088 334.762 L 399.263 331.372 L 401.351 329.462 
                 L 403.439 327.365 L 405.527 325.117 L 407.615 322.454 L 409.702 320.158 L 411.79 317.158 
                 L 413.878 314.413 L 415.966 310.433 L 418.054 308.336 L 420.142 305.107 L 422.23 300.498 
                 L 424.317 293.034 L 426.405 291.748 L 428.493 287.869 L 430.581 281.583 L 432.669 277.597 
                 L 434.757 256.143 L 436.844 259.097 L 438.932 258.48 L 443.108 241.432 L 445.196 235.698 
                 L 449.372 214.847 L 451.459 206.268 L 453.547 195.849 L 455.635 181.099 L 457.723 170.43 
                 L 459.811 153.259 L 461.899 134.152 L 463.986 123.954 L 466.074 103.344 L 468.162 91.9054 
                 L 470.25 74.6271 "
          stroke="rgb(152,169,234)" fill="none" stroke-width="0.5"/>
      </g>
    </g>
    <!-- Legend -->
    <g id="Legend">
      <rect x="93.5" y="31.5" width="200" height="90" stroke="black" fill="none" stroke-width="0.5"/>
      <defs>
        <clipPath id="clipPath8">
          <rect x="93.5" y="31.5" width="200" height="90"/>
        </clipPath>
      </defs>
      <g clip-path="url(#clipPath8)">
        <path d="M 98.5 40.5 L 112.5 40.5 "
          stroke="rgb(228,28,28)" fill="none" stroke-width="0.5"/>
        <g font-family="Helvetica" font-size="12" fill="black">
          <text x="117.5" y="44.8037">bubble</text>
          <text x="153.535" y="47.3139" font-size="9">s</text>
          <text x="158.035" y="44.8037">ort vs size</text>
        </g>
        <path d="M 98.5 54.5 L 112.5 54.5 "
          stroke="rgb(55,126,184)" fill="none" stroke-width="0.5"/>
        <g font-family="Helvetica" font-size="12" fill="black">
          <text x="117.5" y="59.2037">insertion</text>
          <text x="162.857" y="61.7139" font-size="9">s</text>
          <text x="167.357" y="59.2037">ort vs size</text>
        </g>
        <path d="M 98.5 69.5 L 112.5 69.5 "
          stroke="rgb(77,175,74)" fill="none" stroke-width="0.5"/>
        <g font-family="Helvetica" font-size="12" fill="black">
          <text x="117.5" y="73.6037">selection</text>
          <text x="164.861" y="76.1139" font-size="9">s</text>
          <text x="169.361" y="73.6037">ort vs size</text>
        </g>
        <path d="M 98.5 83.5 L 112.5 83.5 "
          stroke="rgb(152,78,163)" fill="none" stroke-width="0.5"/>
        <g font-family="Helvetica" font-size="12" fill="black">
          <text x="117.5" y="88.0037">merge</text>
          <text x="151.514" y="90.5139" font-size="9">s</text>
          <text x="156.014" y="88.0037">ort vs size</text>
        </g>
        <path d="M 98.5 98.5 L 112.5 98.5 "
          stroke="rgb(255,127,0)" fill="none" stroke-width="0.5"/>
        <g font-family="Helvetica" font-size="12" fill="black">
          <text x="117.5" y="102.404">quick</text>
          <text x="145.514" y="104.914" font-size="9">s</text>
          <text x="150.014" y="102.404">ort</text>
          <text x="164.018" y="104.914" font-size="9">a</text>
          <text x="169.023" y="102.404">rray vs size</text>
        </g>
        <path d="M 98.5 112.5 L 112.5 112.5 "
          stroke="rgb(152,169,234)" fill="none" stroke-width="0.5"/>
        <g font-family="Helvetica" font-size="12" fill="black">
          <text x="117.5" y="116.804">quick</text>
          <text x="145.514" y="119.314" font-size="9">s</text>
          <text x="150.014" y="116.804">ort</text>
          <text x="164.018" y="119.314" font-size="9">i</text>
          <text x="166.017" y="116.804">n</text>
          <text x="172.691" y="119.314" font-size="9">p</text>
          <text x="177.696" y="116.804">lace vs size</text>
        </g>
      </g>
    </g>
  </g>
  <!-- Foreground -->
  <g id="Foreground">
    <!-- Y Axis -->
    <g id="Y_Axis">
      <g transform="translate(14.0188,188) rotate(-90) translate(-14.0188,-188)" font-family="Helvetica" font-size="12" fill="black">
        <text x="-9.98711" y="188">time cost</text>
      </g>
      <!-- Y Labels -->
      <g id="Y_Labels">
        <g font-family="Helvetica" font-size="12" fill="black">
          <text x="57.4262" y="361.804">0</text>
        </g>
        <g font-family="Helvetica" font-size="12" fill="black">
          <text x="40.7445" y="333.554">0.05</text>
        </g>
        <g font-family="Helvetica" font-size="12" fill="black">
          <text x="40.7445" y="305.304">0.10</text>
        </g>
        <g font-family="Helvetica" font-size="12" fill="black">
          <text x="40.7445" y="277.054">0.15</text>
        </g>
        <g font-family="Helvetica" font-size="12" fill="black">
          <text x="40.7445" y="248.804">0.20</text>
        </g>
        <g font-family="Helvetica" font-size="12" fill="black">
          <text x="40.7445" y="220.554">0.25</text>
        </g>
        <g font-family="Helvetica" font-size="12" fill="black">
          <text x="40.7445" y="192.304">0.30</text>
        </g>
        <g font-family="Helvetica" font-size="12" fill="black">
          <text x="40.7445" y="164.054">0.35</text>
        </g>
        <g font-family="Helvetica" font-size="12" fill="black">
          <text x="40.7445" y="135.804">0.40</text>
        </g>
        <g font-family="Helvetica" font-size="12" fill="black">
          <text x="40.7445" y="107.554">0.45</text>
        </g>
        <g font-family="Helvetica" font-size="12" fill="black">
          <text x="40.7445" y="79.3037">0.50</text>
        </g>
        <g font-family="Helvetica" font-size="12" fill="black">
          <text x="40.7445" y="51.0537">0.55</text>
        </g>
        <g font-family="Helvetica" font-size="12" fill="black">
          <text x="40.7445" y="22.8037">0.60</text>
        </g>
      </g>
      <path d="M 66.5 357.5 L 74.5 357.5 M 70.5 351.85 L 74.5 351.85 M 70.5 346.2 L 74.5 346.2 M 70.5 340.55 L 74.5 340.55 
               M 70.5 334.9 L 74.5 334.9 M 66.5 329.25 L 74.5 329.25 M 70.5 323.6 L 74.5 323.6 M 70.5 317.95 L 74.5 317.95 
               M 70.5 312.3 L 74.5 312.3 M 70.5 306.65 L 74.5 306.65 M 66.5 301 L 74.5 301 M 70.5 295.35 L 74.5 295.35 
               M 70.5 289.7 L 74.5 289.7 M 70.5 284.05 L 74.5 284.05 M 70.5 278.4 L 74.5 278.4 M 66.5 272.75 L 74.5 272.75 
               M 70.5 267.1 L 74.5 267.1 M 70.5 261.45 L 74.5 261.45 M 70.5 255.8 L 74.5 255.8 M 70.5 250.15 L 74.5 250.15 
               M 66.5 244.5 L 74.5 244.5 M 70.5 238.85 L 74.5 238.85 M 70.5 233.2 L 74.5 233.2 M 70.5 227.55 L 74.5 227.55 
               M 70.5 221.9 L 74.5 221.9 M 66.5 216.25 L 74.5 216.25 M 70.5 210.6 L 74.5 210.6 M 70.5 204.95 L 74.5 204.95 
               M 70.5 199.3 L 74.5 199.3 M 70.5 193.65 L 74.5 193.65 M 66.5 188 L 74.5 188 M 70.5 182.35 L 74.5 182.35 
               M 70.5 176.7 L 74.5 176.7 M 70.5 171.05 L 74.5 171.05 M 70.5 165.4 L 74.5 165.4 M 66.5 159.75 L 74.5 159.75 
               M 70.5 154.1 L 74.5 154.1 M 70.5 148.45 L 74.5 148.45 M 70.5 142.8 L 74.5 142.8 M 70.5 137.15 L 74.5 137.15 
               M 66.5 131.5 L 74.5 131.5 M 70.5 125.85 L 74.5 125.85 M 70.5 120.2 L 74.5 120.2 M 70.5 114.55 L 74.5 114.55 
               M 70.5 108.9 L 74.5 108.9 M 66.5 103.25 L 74.5 103.25 M 70.5 97.6 L 74.5 97.6 M 70.5 91.95 L 74.5 91.95 
               M 70.5 86.3 L 74.5 86.3 M 70.5 80.65 L 74.5 80.65 M 66.5 75 L 74.5 75 M 70.5 69.35 L 74.5 69.35 
               M 70.5 63.7 L 74.5 63.7 M 70.5 58.05 L 74.5 58.05 M 70.5 52.4 L 74.5 52.4 M 66.5 46.75 L 74.5 46.75 
               M 70.5 41.1 L 74.5 41.1 M 70.5 35.45 L 74.5 35.45 M 70.5 29.8 L 74.5 29.8 M 70.5 24.15 L 74.5 24.15 
               M 66.5 18.5 L 74.5 18.5 "
        stroke="black" fill="none" stroke-width="0.5"/>
    </g>
    <!-- X Axis -->
    <g id="X_Axis">
      <g font-family="Helvetica" font-size="12" fill="black">
        <text x="270.646" y="395">size of integers</text>
      </g>
      <g>
        <g font-family="Helvetica" font-size="12" fill="black">
          <text x="120.756" y="376.69">10</text>
          <text x="134.103" y="371.356" font-size="9">1</text>
        </g>
        <g font-family="Helvetica" font-size="12" fill="black">
          <text x="190.35" y="376.69">10</text>
          <text x="203.698" y="371.356" font-size="9">2</text>
        </g>
        <g font-family="Helvetica" font-size="12" fill="black">
          <text x="259.945" y="376.69">10</text>
          <text x="273.293" y="371.356" font-size="9">3</text>
        </g>
        <g font-family="Helvetica" font-size="12" fill="black">
          <text x="329.54" y="376.69">10</text>
          <text x="342.887" y="371.356" font-size="9">4</text>
        </g>
        <g font-family="Helvetica" font-size="12" fill="black">
          <text x="399.134" y="376.69">10</text>
          <text x="412.482" y="371.356" font-size="9">5</text>
        </g>
        <g font-family="Helvetica" font-size="12" fill="black">
          <text x="468.729" y="376.69">10</text>
          <text x="482.076" y="371.356" font-size="9">6</text>
        </g>
        <g font-family="Helvetica" font-size="12" fill="black">
          <text x="538.323" y="376.69">10</text>
          <text x="551.671" y="371.356" font-size="9">7</text>
        </g>
      </g>
      <path d="M 129.932 365.5 L 129.932 357.5 M 199.527 365.5 L 199.527 357.5 M 269.121 365.5 L 269.121 357.5 
               M 338.716 365.5 L 338.716 357.5 M 408.311 365.5 L 408.311 357.5 M 477.905 365.5 L 477.905 357.5 
               M 547.5 365.5 L 547.5 357.5 M 81.2876 361.5 L 81.2876 357.5 M 93.5426 361.5 L 93.5426 357.5 
               M 102.238 361.5 L 102.238 357.5 M 108.982 361.5 L 108.982 357.5 M 114.493 361.5 L 114.493 357.5 
               M 119.152 361.5 L 119.152 357.5 M 123.188 361.5 L 123.188 357.5 M 126.748 361.5 L 126.748 357.5 
               M 150.882 361.5 L 150.882 357.5 M 163.137 361.5 L 163.137 357.5 M 171.832 361.5 L 171.832 357.5 
               M 178.577 361.5 L 178.577 357.5 M 184.087 361.5 L 184.087 357.5 M 188.746 361.5 L 188.746 357.5 
               M 192.782 361.5 L 192.782 357.5 M 196.342 361.5 L 196.342 357.5 M 220.477 361.5 L 220.477 357.5 
               M 232.732 361.5 L 232.732 357.5 M 241.427 361.5 L 241.427 357.5 M 248.171 361.5 L 248.171 357.5 
               M 253.682 361.5 L 253.682 357.5 M 258.341 361.5 L 258.341 357.5 M 262.377 361.5 L 262.377 357.5 
               M 265.937 361.5 L 265.937 357.5 M 290.071 361.5 L 290.071 357.5 M 302.327 361.5 L 302.327 357.5 
               M 311.022 361.5 L 311.022 357.5 M 317.766 361.5 L 317.766 357.5 M 323.277 361.5 L 323.277 357.5 
               M 327.936 361.5 L 327.936 357.5 M 331.972 361.5 L 331.972 357.5 M 335.532 361.5 L 335.532 357.5 
               M 359.666 361.5 L 359.666 357.5 M 371.921 361.5 L 371.921 357.5 M 380.616 361.5 L 380.616 357.5 
               M 387.361 361.5 L 387.361 357.5 M 392.871 361.5 L 392.871 357.5 M 397.53 361.5 L 397.53 357.5 
               M 401.566 361.5 L 401.566 357.5 M 405.126 361.5 L 405.126 357.5 M 429.261 361.5 L 429.261 357.5 
               M 441.516 361.5 L 441.516 357.5 M 450.211 361.5 L 450.211 357.5 M 456.955 361.5 L 456.955 357.5 
               M 462.466 361.5 L 462.466 357.5 M 467.125 361.5 L 467.125 357.5 M 471.161 361.5 L 471.161 357.5 
               M 474.721 361.5 L 474.721 357.5 M 498.855 361.5 L 498.855 357.5 M 511.11 361.5 L 511.11 357.5 
               M 519.806 361.5 L 519.806 357.5 M 526.55 361.5 L 526.55 357.5 M 532.061 361.5 L 532.061 357.5 
               M 536.72 361.5 L 536.72 357.5 M 540.756 361.5 L 540.756 357.5 M 544.316 361.5 L 544.316 357.5 "
        stroke="black" fill="none" stroke-width="0.5"/>
    </g>
    <g font-family="Helvetica" font-size="12" fill="black">
      <text x="239.97" y="14.0188">time vs size in large period</text>
    </g>
    <path d="M 547.5 357.5 L 547.5 18.5 L 74.5 18.5 L 74.5 357.5 L 547.5 357.5 z "
      stroke="black" stroke-linecap="square" fill="none" stroke-width="0.5"/>
  </g>
</g>
</svg>
