<?xml version="1.0" encoding="utf-8" standalone="no"?>
<!-- Generator: DataGraph - https://www.visualdatatools.com/DataGraph/index.html  --><!DOCTYPE svg PUBLIC "-//W3C//DTD SVG 1.1//EN" "http://www.w3.org/Graphics/SVG/1.1/DTD/svg11.dtd">
<svg width="563" height="402" version="1.1" xmlns="http://www.w3.org/2000/svg" xmlns:xlink="http://www.w3.org/1999/xlink">
<g>
  <!-- Background -->
  <g id="Background">
    <defs>
      <clipPath id="clipPath">
        <rect x="74.5" y="18.5" width="473" height="339"/>
      </clipPath>
    </defs>
    <!-- Grid -->
    <g id="Grid" clip-path="url(#clipPath)">
      <path d="M 129.186 357.5 L 129.186 18.5 M 208.098 357.5 L 208.098 18.5 M 287.01 357.5 L 287.01 18.5 
               M 365.921 357.5 L 365.921 18.5 M 444.833 357.5 L 444.833 18.5 M 523.745 357.5 L 523.745 18.5 "
        stroke="black" stroke-dasharray="0.00979538,3.91815" stroke-dashoffset="-0.0366303" stroke-linecap="round" fill="none" stroke-width="0.5"/>
      <path d="M 74.5 353.531 L 547.5 353.531 M 74.5 318.179 L 547.5 318.179 M 74.5 282.828 L 547.5 282.828 
               M 74.5 247.476 L 547.5 247.476 M 74.5 212.124 L 547.5 212.124 M 74.5 176.773 L 547.5 176.773 
               M 74.5 141.421 L 547.5 141.421 M 74.5 106.07 L 547.5 106.07 M 74.5 70.7185 L 547.5 70.7185 
               M 74.5 35.367 L 547.5 35.367 "
        stroke="black" stroke-dasharray="0.00983938,3.93575" stroke-dashoffset="0.557307" stroke-linecap="round" fill="none" stroke-width="0.5"/>
    </g>
  </g>
  <!-- Commands -->
  <g id="Commands">
    <!-- bubble_sort vs size -->
    <g id="bubble_sort_vs_size">
      <defs>
        <clipPath id="clipPath2">
          <rect x="74.5" y="18.5" width="473" height="339"/>
        </clipPath>
      </defs>
      <g clip-path="url(#clipPath2)">
        <path d="M 129.186 307.537 L 132.452 293.469 L 138.177 307.537 L 143.082 307.537 L 147.371 301.312 
                 L 151.183 301.312 L 156.207 290.67 L 161.932 290.67 L 166.836 288.304 L 171.126 282.828 
                 L 175.828 275.612 L 180.732 270.722 L 185.687 267.578 L 190.591 263.594 L 195.381 255.577 
                 L 200.019 248.264 L 204.866 248.264 L 209.442 239.42 L 214.346 237.703 L 219.136 230.867 
                 L 223.774 226.192 L 228.432 217.644 L 233.197 212.279 L 237.958 208.934 L 242.766 204.205 
                 L 247.529 199.344 L 252.281 192.891 L 256.952 187.797 L 261.713 176.196 L 266.459 175.69 
                 L 275.941 163.723 L 280.665 157.183 L 299.625 132.723 L 304.358 127.129 L 313.828 115.192 
                 L 328.041 97.4855 L 337.512 85.8484 L 342.242 79.8762 L 346.98 74.3096 L 361.184 57.0744 "
          stroke="rgb(228,28,28)" fill="none" stroke-width="0.5"/>
      </g>
    </g>
    <!-- insertion_sort vs size -->
    <g id="insertion_sort_vs_size">
      <defs>
        <clipPath id="clipPath3">
          <rect x="74.5" y="18.5" width="473" height="339"/>
        </clipPath>
      </defs>
      <g clip-path="url(#clipPath3)">
        <path d="M 129.186 318.179 L 132.452 307.537 L 138.177 318.179 L 143.082 307.537 L 147.371 307.537 
                 L 151.183 318.179 L 156.207 301.312 L 161.932 301.312 L 166.836 296.895 L 171.126 296.895 
                 L 175.828 288.304 L 180.732 278.799 L 185.687 282.828 L 190.591 278.799 L 195.381 275.612 
                 L 200.019 267.02 L 209.442 252.099 L 214.346 253.173 L 219.136 246.581 L 223.774 233.718 
                 L 228.432 229.427 L 233.197 224.799 L 237.958 221.959 L 242.766 219.789 L 247.529 213.708 
                 L 252.281 201.59 L 256.952 201.919 L 261.713 189.514 L 266.459 192.565 L 271.175 185.468 
                 L 275.941 180.408 L 280.665 174.933 L 285.396 169.606 L 290.151 162.958 L 299.625 152.907 
                 L 304.358 146.672 L 309.097 141.813 L 318.562 130.267 L 323.309 124.651 L 328.041 118.007 
                 L 332.77 113.507 L 337.512 107.208 L 351.712 90.7509 L 356.449 84.5801 L 361.184 79.6224 
                 L 365.921 73.9586 L 370.655 68.1008 L 380.124 57.0517 "
          stroke="rgb(55,126,184)" fill="none" stroke-width="0.5"/>
      </g>
    </g>
    <!-- selection_sort vs size -->
    <g id="selection_sort_vs_size">
      <defs>
        <clipPath id="clipPath4">
          <rect x="74.5" y="18.5" width="473" height="339"/>
        </clipPath>
      </defs>
      <g clip-path="url(#clipPath4)">
        <path d="M 129.186 307.537 L 132.452 307.537 L 138.177 301.312 L 151.183 301.312 L 156.207 290.67 
                 L 161.932 293.469 L 166.836 288.304 L 175.828 273.803 L 180.732 273.803 L 185.687 270.04 
                 L 190.591 264.497 L 195.381 253.173 L 200.019 253.625 L 204.866 247.476 L 209.442 237.703 
                 L 214.346 232.806 L 219.136 229.958 L 228.432 215.19 L 233.197 209.557 L 237.958 208.971 
                 L 247.529 197.585 L 252.281 191.408 L 256.952 186.196 L 261.713 176.884 L 266.459 174.673 
                 L 271.175 168.923 L 275.941 162.933 L 280.665 157.821 L 285.396 152.057 L 290.151 146.026 
                 L 294.876 140.738 L 299.625 135.203 L 304.358 129.333 L 318.562 112.661 L 323.309 106.72 
                 L 328.041 101.228 L 332.77 95.5271 L 337.512 89.9696 L 342.242 84.1636 L 346.98 78.7175 
                 L 356.449 67.2014 L 361.184 61.7059 L 365.921 56.0391 "
          stroke="rgb(77,175,74)" fill="none" stroke-width="0.5"/>
      </g>
    </g>
    <!-- merge_sort vs size -->
    <g id="merge_sort_vs_size">
      <defs>
        <clipPath id="clipPath5">
          <rect x="74.5" y="18.5" width="473" height="339"/>
        </clipPath>
      </defs>
      <g clip-path="url(#clipPath5)">
        <path d="M 129.186 268.158 L 132.452 271.437 L 138.177 290.67 L 147.371 286.253 L 151.183 278.799 
                 L 156.207 271.437 L 161.932 281.364 L 166.836 278.799 L 171.126 270.722 L 175.828 269.386 
                 L 180.732 272.973 L 185.687 268.76 L 190.591 267.578 L 195.381 259.735 L 200.019 261.165 
                 L 204.866 259.735 L 209.442 251.893 L 214.346 243.806 L 219.136 250.902 L 223.774 248.59 
                 L 228.432 238.452 L 233.197 236.758 L 237.958 239.788 L 247.529 234.622 L 252.281 231.024 
                 L 256.952 227.853 L 261.713 223.489 L 266.459 222.89 L 271.175 218.881 L 275.941 213.305 
                 L 280.665 213.606 L 285.396 209.979 L 290.151 206.085 L 294.876 204.775 L 299.625 201.903 
                 L 304.358 198.392 L 309.097 195.309 L 313.828 192.878 L 318.562 190.327 L 323.309 186.282 
                 L 328.041 183.539 L 332.77 180.958 L 337.512 177.985 L 342.242 173.672 L 346.98 171.882 
                 L 351.712 168.161 L 356.449 165.901 L 365.921 159.51 L 370.655 157.295 L 375.389 153.553 
                 L 380.124 150.432 L 384.86 148.11 L 394.329 141.689 L 399.064 138.999 L 408.533 133.394 
                 L 418.003 126.817 L 422.738 123.652 L 427.472 121.431 L 436.942 114.796 L 441.677 112.647 
                 L 446.411 109.306 L 451.146 106.288 L 455.881 103.725 L 460.616 101.008 L 465.35 97.6514 
                 L 470.085 94.7024 L 474.82 92.0339 L 479.554 89.0653 L 484.289 85.7212 L 489.024 83.0628 
                 L 493.759 79.6359 "
          stroke="rgb(152,78,163)" fill="none" stroke-width="0.5"/>
      </g>
    </g>
    <!-- quick_sort_array vs size -->
    <g id="quick_sort_array_vs_size">
      <defs>
        <clipPath id="clipPath6">
          <rect x="74.5" y="18.5" width="473" height="339"/>
        </clipPath>
      </defs>
      <g clip-path="url(#clipPath6)">
        <path d="M 129.186 263.594 L 132.452 288.304 L 143.082 284.445 L 147.371 284.445 L 151.183 282.828 
                 L 156.207 278.799 L 161.932 276.602 L 166.836 265.457 L 171.126 268.76 L 175.828 265.457 
                 L 180.732 268.158 L 185.687 265.457 L 190.591 257.223 L 195.381 255.065 L 200.019 256.936 
                 L 204.866 249.439 L 209.442 247.476 L 214.346 247.944 L 219.136 245.066 L 223.774 243.214 
                 L 228.432 235.94 L 233.197 231.834 L 237.958 234.555 L 242.766 231.236 L 247.529 228.733 
                 L 252.281 225.48 L 275.941 211.071 L 280.665 203.978 L 285.396 205.073 L 290.151 201.391 
                 L 294.876 199.277 L 304.358 192.751 L 309.097 190.276 L 313.828 187.625 L 323.309 181.143 
                 L 328.041 178.783 L 332.77 175.74 L 342.242 170.013 L 346.98 166.675 L 351.712 162.645 
                 L 356.449 159.863 L 361.184 157.811 L 365.921 153.708 L 370.655 151.638 L 375.389 148.984 
                 L 380.124 145.759 L 389.594 140.338 L 408.533 128.387 L 413.268 125.699 L 422.738 119.475 
                 L 427.472 116.172 L 432.207 113.372 L 436.942 110.795 L 446.411 105.248 L 455.881 99.2175 
                 L 460.616 96.5008 L 470.085 90.4136 L 474.82 87.6912 L 479.554 84.6237 L 484.289 81.8151 
                 L 489.024 78.7461 L 493.759 74.9117 "
          stroke="rgb(255,127,0)" fill="none" stroke-width="0.5"/>
      </g>
    </g>
    <!-- quick_sort_in_place vs size -->
    <g id="quick_sort_in_place_vs_size">
      <defs>
        <clipPath id="clipPath7">
          <rect x="74.5" y="18.5" width="473" height="339"/>
        </clipPath>
      </defs>
      <g clip-path="url(#clipPath7)">
        <path d="M 129.186 290.67 L 132.452 296.895 L 138.177 301.312 L 143.082 290.67 L 147.371 290.67 
                 L 151.183 288.304 L 156.207 286.253 L 161.932 284.445 L 166.836 280.028 L 171.126 273.803 
                 L 175.828 273.803 L 180.732 274.681 L 185.687 272.186 L 190.591 260.08 L 195.381 263.161 
                 L 200.019 261.544 L 204.866 259.735 L 209.442 257.516 L 214.346 254.328 L 219.136 251.489 
                 L 223.774 246.013 L 228.432 244.298 L 233.197 239.42 L 237.958 236.988 L 242.766 237.381 
                 L 252.281 231.289 L 261.713 225.516 L 266.459 222.402 L 271.175 219.588 L 275.941 216.562 
                 L 280.665 208.443 L 285.396 210.371 L 290.151 207.191 L 294.876 204.718 L 299.625 201.863 
                 L 304.358 198.715 L 313.828 192.983 L 318.562 189.773 L 323.309 186.825 L 328.041 184.063 
                 L 337.512 177.907 L 342.242 175.171 L 346.98 172.088 L 351.712 168.488 L 356.449 165.179 
                 L 361.184 163.26 L 365.921 160.165 L 370.655 157.206 L 375.389 154.406 L 394.329 142.501 
                 L 399.064 139.249 L 403.799 136.59 L 413.268 130.6 L 418.003 127.892 L 432.207 118.895 
                 L 436.942 116.139 L 446.411 110.325 L 455.881 104.322 L 460.616 101.607 L 465.35 98.5417 
                 L 470.085 95.6121 L 474.82 92.8048 L 479.554 89.6656 L 489.024 84.0217 L 493.759 80.3141 "
          stroke="rgb(166,206,227)" fill="none" stroke-width="0.5"/>
      </g>
    </g>
    <!-- Legend -->
    <g id="Legend">
      <rect x="87.5" y="27.5" width="200" height="90" stroke="black" fill="none" stroke-width="0.5"/>
      <defs>
        <clipPath id="clipPath8">
          <rect x="87.5" y="27.5" width="200" height="90"/>
        </clipPath>
      </defs>
      <g clip-path="url(#clipPath8)">
        <path d="M 92.5 36.5 L 106.5 36.5 "
          stroke="rgb(228,28,28)" fill="none" stroke-width="0.5"/>
        <g font-family="Helvetica" font-size="12" fill="black">
          <text x="111.5" y="40.8037">bubble</text>
          <text x="147.535" y="43.3139" font-size="9">s</text>
          <text x="152.035" y="40.8037">ort vs size</text>
        </g>
        <path d="M 92.5 50.5 L 106.5 50.5 "
          stroke="rgb(55,126,184)" fill="none" stroke-width="0.5"/>
        <g font-family="Helvetica" font-size="12" fill="black">
          <text x="111.5" y="55.2037">insertion</text>
          <text x="156.857" y="57.7139" font-size="9">s</text>
          <text x="161.357" y="55.2037">ort vs size</text>
        </g>
        <path d="M 92.5 65.5 L 106.5 65.5 "
          stroke="rgb(77,175,74)" fill="none" stroke-width="0.5"/>
        <g font-family="Helvetica" font-size="12" fill="black">
          <text x="111.5" y="69.6037">selection</text>
          <text x="158.861" y="72.1139" font-size="9">s</text>
          <text x="163.361" y="69.6037">ort vs size</text>
        </g>
        <path d="M 92.5 79.5 L 106.5 79.5 "
          stroke="rgb(152,78,163)" fill="none" stroke-width="0.5"/>
        <g font-family="Helvetica" font-size="12" fill="black">
          <text x="111.5" y="84.0037">merge</text>
          <text x="145.514" y="86.5139" font-size="9">s</text>
          <text x="150.014" y="84.0037">ort vs size</text>
        </g>
        <path d="M 92.5 94.5 L 106.5 94.5 "
          stroke="rgb(255,127,0)" fill="none" stroke-width="0.5"/>
        <g font-family="Helvetica" font-size="12" fill="black">
          <text x="111.5" y="98.4037">quick</text>
          <text x="139.514" y="100.914" font-size="9">s</text>
          <text x="144.014" y="98.4037">ort</text>
          <text x="158.018" y="100.914" font-size="9">a</text>
          <text x="163.023" y="98.4037">rray vs size</text>
        </g>
        <path d="M 92.5 108.5 L 106.5 108.5 "
          stroke="rgb(166,206,227)" fill="none" stroke-width="0.5"/>
        <g font-family="Helvetica" font-size="12" fill="black">
          <text x="111.5" y="112.804">quick</text>
          <text x="139.514" y="115.314" font-size="9">s</text>
          <text x="144.014" y="112.804">ort</text>
          <text x="158.018" y="115.314" font-size="9">i</text>
          <text x="160.017" y="112.804">n</text>
          <text x="166.691" y="115.314" font-size="9">p</text>
          <text x="171.696" y="112.804">lace vs size</text>
        </g>
      </g>
    </g>
  </g>
  <!-- Foreground -->
  <g id="Foreground">
    <!-- Y Axis -->
    <g id="Y_Axis">
      <g transform="translate(14.0188,188) rotate(-90) translate(-14.0188,-188)" font-family="Helvetica" font-size="12" fill="black">
        <text x="-9.98711" y="188">time cost</text>
      </g>
      <!-- Y Labels -->
      <g id="Y_Labels">
        <g font-family="Helvetica" font-size="12" fill="black">
          <text x="40.4911" y="357.834">10</text>
          <text x="53.8388" y="352.5" font-size="9">−7</text>
        </g>
        <g font-family="Helvetica" font-size="12" fill="black">
          <text x="40.4911" y="322.483">10</text>
          <text x="53.8388" y="317.149" font-size="9">−6</text>
        </g>
        <g font-family="Helvetica" font-size="12" fill="black">
          <text x="40.4911" y="287.131">10</text>
          <text x="53.8388" y="281.797" font-size="9">−5</text>
        </g>
        <g font-family="Helvetica" font-size="12" fill="black">
          <text x="40.4911" y="251.78">10</text>
          <text x="53.8388" y="246.446" font-size="9">−4</text>
        </g>
        <g font-family="Helvetica" font-size="12" fill="black">
          <text x="40.4911" y="216.428">10</text>
          <text x="53.8388" y="211.094" font-size="9">−3</text>
        </g>
        <g font-family="Helvetica" font-size="12" fill="black">
          <text x="40.4911" y="181.077">10</text>
          <text x="53.8388" y="175.743" font-size="9">−2</text>
        </g>
        <g font-family="Helvetica" font-size="12" fill="black">
          <text x="40.4911" y="145.725">10</text>
          <text x="53.8388" y="140.391" font-size="9">−1</text>
        </g>
        <g font-family="Helvetica" font-size="12" fill="black">
          <text x="57.4262" y="110.374">1</text>
        </g>
        <g font-family="Helvetica" font-size="12" fill="black">
          <text x="45.747" y="75.0222">10</text>
          <text x="59.0946" y="69.6881" font-size="9">1</text>
        </g>
        <g font-family="Helvetica" font-size="12" fill="black">
          <text x="45.747" y="39.6707">10</text>
          <text x="59.0946" y="34.3366" font-size="9">2</text>
        </g>
      </g>
      <path d="M 70.5 356.956 L 74.5 356.956 M 70.5 355.148 L 74.5 355.148 M 66.5 353.531 L 74.5 353.531 
               M 70.5 342.889 L 74.5 342.889 M 70.5 336.664 L 74.5 336.664 M 70.5 332.247 L 74.5 332.247 
               M 70.5 328.821 L 74.5 328.821 M 70.5 326.022 L 74.5 326.022 M 70.5 323.655 L 74.5 323.655 
               M 70.5 321.605 L 74.5 321.605 M 70.5 319.797 L 74.5 319.797 M 66.5 318.179 L 74.5 318.179 
               M 70.5 307.537 L 74.5 307.537 M 70.5 301.312 L 74.5 301.312 M 70.5 296.895 L 74.5 296.895 
               M 70.5 293.469 L 74.5 293.469 M 70.5 290.67 L 74.5 290.67 M 70.5 288.304 L 74.5 288.304 
               M 70.5 286.253 L 74.5 286.253 M 70.5 284.445 L 74.5 284.445 M 66.5 282.828 L 74.5 282.828 
               M 70.5 272.186 L 74.5 272.186 M 70.5 265.961 L 74.5 265.961 M 70.5 261.544 L 74.5 261.544 
               M 70.5 258.118 L 74.5 258.118 M 70.5 255.319 L 74.5 255.319 M 70.5 252.952 L 74.5 252.952 
               M 70.5 250.902 L 74.5 250.902 M 70.5 249.094 L 74.5 249.094 M 66.5 247.476 L 74.5 247.476 
               M 70.5 236.834 L 74.5 236.834 M 70.5 230.609 L 74.5 230.609 M 70.5 226.192 L 74.5 226.192 
               M 70.5 222.766 L 74.5 222.766 M 70.5 219.967 L 74.5 219.967 M 70.5 217.601 L 74.5 217.601 
               M 70.5 215.55 L 74.5 215.55 M 70.5 213.742 L 74.5 213.742 M 66.5 212.124 L 74.5 212.124 
               M 70.5 201.483 L 74.5 201.483 M 70.5 195.258 L 74.5 195.258 M 70.5 190.841 L 74.5 190.841 
               M 70.5 187.415 L 74.5 187.415 M 70.5 184.616 L 74.5 184.616 M 70.5 182.249 L 74.5 182.249 
               M 70.5 180.199 L 74.5 180.199 M 70.5 178.391 L 74.5 178.391 M 66.5 176.773 L 74.5 176.773 
               M 70.5 166.131 L 74.5 166.131 M 70.5 159.906 L 74.5 159.906 M 70.5 155.489 L 74.5 155.489 
               M 70.5 152.063 L 74.5 152.063 M 70.5 149.264 L 74.5 149.264 M 70.5 146.897 L 74.5 146.897 
               M 70.5 144.847 L 74.5 144.847 M 70.5 143.039 L 74.5 143.039 M 66.5 141.421 L 74.5 141.421 
               M 70.5 130.78 L 74.5 130.78 M 70.5 124.555 L 74.5 124.555 M 70.5 120.138 L 74.5 120.138 
               M 70.5 116.712 L 74.5 116.712 M 70.5 113.913 L 74.5 113.913 M 70.5 111.546 L 74.5 111.546 
               M 70.5 109.496 L 74.5 109.496 M 70.5 107.688 L 74.5 107.688 M 66.5 106.07 L 74.5 106.07 
               M 70.5 95.4281 L 74.5 95.4281 M 70.5 89.203 L 74.5 89.203 M 70.5 84.7862 L 74.5 84.7862 
               M 70.5 81.3603 L 74.5 81.3603 M 70.5 78.5612 L 74.5 78.5612 M 70.5 76.1945 L 74.5 76.1945 
               M 70.5 74.1444 L 74.5 74.1444 M 70.5 72.3361 L 74.5 72.3361 M 66.5 70.7185 L 74.5 70.7185 
               M 70.5 60.0766 L 74.5 60.0766 M 70.5 53.8515 L 74.5 53.8515 M 70.5 49.4347 L 74.5 49.4347 
               M 70.5 46.0088 L 74.5 46.0088 M 70.5 43.2096 L 74.5 43.2096 M 70.5 40.843 L 74.5 40.843 
               M 70.5 38.7929 L 74.5 38.7929 M 70.5 36.9846 L 74.5 36.9846 M 66.5 35.367 L 74.5 35.367 
               M 70.5 24.7251 L 74.5 24.7251 M 70.5 18.5 L 74.5 18.5 "
        stroke="black" fill="none" stroke-width="0.5"/>
    </g>
    <!-- X Axis -->
    <g id="X_Axis">
      <g font-family="Helvetica" font-size="12" fill="black">
        <text x="270.646" y="395">size of integers</text>
      </g>
      <g>
        <g font-family="Helvetica" font-size="12" fill="black">
          <text x="120.009" y="376.69">10</text>
          <text x="133.357" y="371.356" font-size="9">1</text>
        </g>
        <g font-family="Helvetica" font-size="12" fill="black">
          <text x="198.921" y="376.69">10</text>
          <text x="212.269" y="371.356" font-size="9">2</text>
        </g>
        <g font-family="Helvetica" font-size="12" fill="black">
          <text x="277.833" y="376.69">10</text>
          <text x="291.181" y="371.356" font-size="9">3</text>
        </g>
        <g font-family="Helvetica" font-size="12" fill="black">
          <text x="356.745" y="376.69">10</text>
          <text x="370.093" y="371.356" font-size="9">4</text>
        </g>
        <g font-family="Helvetica" font-size="12" fill="black">
          <text x="435.657" y="376.69">10</text>
          <text x="449.004" y="371.356" font-size="9">5</text>
        </g>
        <g font-family="Helvetica" font-size="12" fill="black">
          <text x="514.569" y="376.69">10</text>
          <text x="527.916" y="371.356" font-size="9">6</text>
        </g>
      </g>
      <path d="M 129.186 365.5 L 129.186 357.5 M 208.098 365.5 L 208.098 357.5 M 287.01 365.5 L 287.01 357.5 
               M 365.921 365.5 L 365.921 357.5 M 444.833 365.5 L 444.833 357.5 M 523.745 365.5 L 523.745 357.5 
               M 87.9246 361.5 L 87.9246 357.5 M 97.7837 361.5 L 97.7837 357.5 M 105.431 361.5 L 105.431 357.5 
               M 111.679 361.5 L 111.679 357.5 M 116.962 361.5 L 116.962 357.5 M 121.539 361.5 L 121.539 357.5 
               M 125.575 361.5 L 125.575 357.5 M 152.941 361.5 L 152.941 357.5 M 166.836 361.5 L 166.836 357.5 
               M 176.696 361.5 L 176.696 357.5 M 184.343 361.5 L 184.343 357.5 M 190.591 361.5 L 190.591 357.5 
               M 195.874 361.5 L 195.874 357.5 M 200.45 361.5 L 200.45 357.5 M 204.487 361.5 L 204.487 357.5 
               M 231.853 361.5 L 231.853 357.5 M 245.748 361.5 L 245.748 357.5 M 255.607 361.5 L 255.607 357.5 
               M 263.255 361.5 L 263.255 357.5 M 269.503 361.5 L 269.503 357.5 M 274.786 361.5 L 274.786 357.5 
               M 279.362 361.5 L 279.362 357.5 M 283.399 361.5 L 283.399 357.5 M 310.764 361.5 L 310.764 357.5 
               M 324.66 361.5 L 324.66 357.5 M 334.519 361.5 L 334.519 357.5 M 342.167 361.5 L 342.167 357.5 
               M 348.415 361.5 L 348.415 357.5 M 353.698 361.5 L 353.698 357.5 M 358.274 361.5 L 358.274 357.5 
               M 362.311 361.5 L 362.311 357.5 M 389.676 361.5 L 389.676 357.5 M 403.572 361.5 L 403.572 357.5 
               M 413.431 361.5 L 413.431 357.5 M 421.078 361.5 L 421.078 357.5 M 427.327 361.5 L 427.327 357.5 
               M 432.61 361.5 L 432.61 357.5 M 437.186 361.5 L 437.186 357.5 M 441.223 361.5 L 441.223 357.5 
               M 468.588 361.5 L 468.588 357.5 M 482.484 361.5 L 482.484 357.5 M 492.343 361.5 L 492.343 357.5 
               M 499.99 361.5 L 499.99 357.5 M 506.239 361.5 L 506.239 357.5 M 511.522 361.5 L 511.522 357.5 
               M 516.098 361.5 L 516.098 357.5 M 520.134 361.5 L 520.134 357.5 M 547.5 361.5 L 547.5 357.5 "
        stroke="black" fill="none" stroke-width="0.5"/>
    </g>
    <g font-family="Helvetica" font-size="12" fill="black">
      <text x="239.97" y="14.0188">time vs size in large period</text>
    </g>
    <path d="M 547.5 357.5 L 547.5 18.5 L 74.5 18.5 L 74.5 357.5 L 547.5 357.5 z "
      stroke="black" stroke-linecap="square" fill="none" stroke-width="0.5"/>
  </g>
</g>
</svg>
