<?xml version="1.0" encoding="utf-8" standalone="no"?>
<!-- Generator: DataGraph - https://www.visualdatatools.com/DataGraph/index.html  --><!DOCTYPE svg PUBLIC "-//W3C//DTD SVG 1.1//EN" "http://www.w3.org/Graphics/SVG/1.1/DTD/svg11.dtd">
<svg width="563" height="402" version="1.1" xmlns="http://www.w3.org/2000/svg" xmlns:xlink="http://www.w3.org/1999/xlink">
<g>
  <!-- Background -->
  <g id="Background">
    <defs>
      <clipPath id="clipPath">
        <rect x="74.5" y="18.5" width="473" height="339"/>
      </clipPath>
    </defs>
    <!-- Grid -->
    <g id="Grid" clip-path="url(#clipPath)">
      <path d="M 74.5 307.647 L 547.5 307.647 M 74.5 257.794 L 547.5 257.794 M 74.5 207.941 L 547.5 207.941 
               M 74.5 158.088 L 547.5 158.088 M 74.5 108.235 L 547.5 108.235 M 74.5 58.3824 L 547.5 58.3824 "
        stroke="black" stroke-dasharray="0.00997506,3.99002" stroke-linecap="round" fill="none" stroke-width="0.5"/>
    </g>
  </g>
  <!-- Commands -->
  <g id="Commands">
    <!-- bubble_sort vs size -->
    <g id="bubble_sort_vs_size">
      <defs>
        <clipPath id="clipPath2">
          <rect x="74.5" y="18.5" width="473" height="339"/>
        </clipPath>
      </defs>
      <g clip-path="url(#clipPath2)">
        <path d="M 131.292 357.301 L 139.209 357.4 L 146.437 357.301 L 153.086 357.201 L 153.086 357.4 
                 L 159.241 357.201 L 164.972 357.4 L 170.333 357.201 L 175.369 357.301 L 180.117 357.101 
                 L 184.608 357.101 L 192.921 357.301 L 196.785 357.201 L 200.478 357.301 L 222.548 356.902 
                 L 225.272 357.101 L 232.945 356.902 L 237.693 357.101 L 244.342 356.603 L 248.496 356.802 
                 L 259.84 356.702 L 264.98 356.503 L 268.238 356.503 L 271.373 356.304 L 275.864 356.304 
                 L 280.125 356.104 L 288.042 356.004 L 291.734 355.905 L 295.269 355.705 L 298.66 355.705 
                 L 322.556 354.509 L 325.814 353.611 L 329.715 354.21 L 333.44 353.711 L 341.092 353.113 
                 L 344.986 351.518 L 349.31 350.919 L 352.845 351.916 L 356.788 350.022 L 360.552 350.521 
                 L 364.153 350.321 L 368.086 347.43 L 371.841 349.025 L 379.716 346.831 L 383.39 346.233 
                 L 387.291 344.937 L 391.38 339.254 L 394.93 342.843 L 398.999 341.846 L 402.879 339.852 
                 L 410.421 336.861 L 414.089 328.884 L 418.128 332.972 L 421.981 330.48 L 425.662 327.788 
                 L 429.646 325.295 L 433.448 322.204 L 437.292 316.621 L 440.966 315.624 L 444.867 309.143 
                 L 448.774 304.157 L 452.506 301.565 L 456.41 293.688 L 460.138 287.307 L 464.01 281.026 
                 L 467.853 271.354 L 471.665 265.571 L 475.441 255.8 L 479.305 242.739 L 483.118 234.762 
                 L 486.993 215.319 L 490.805 207.044 L 494.659 196.375 L 498.443 173.742 L 502.252 165.965 
                 L 506.169 149.613 "
          stroke="rgb(228,28,28)" fill="none" stroke-width="0.5"/>
      </g>
    </g>
    <!-- insertion_sort vs size -->
    <g id="insertion_sort_vs_size">
      <defs>
        <clipPath id="clipPath3">
          <rect x="74.5" y="18.5" width="473" height="339"/>
        </clipPath>
      </defs>
      <g clip-path="url(#clipPath3)">
        <path d="M 131.292 357.4 L 146.437 357.4 L 153.086 357.301 L 164.972 357.4 L 164.972 357.201 
                 L 184.608 357.201 L 242.184 357.101 L 244.342 357.001 L 248.496 357.201 L 252.452 357.101 
                 L 256.228 357.201 L 259.84 357.001 L 268.238 357.101 L 271.373 356.802 L 275.864 356.603 
                 L 280.125 356.902 L 295.269 356.902 L 298.66 356.603 L 302.976 356.802 L 307.079 356.503 
                 L 314.722 356.603 L 318.296 356.204 L 322.556 355.506 L 325.814 356.004 L 333.44 356.104 
                 L 337.701 355.805 L 341.092 355.705 L 349.31 354.509 L 352.845 355.207 L 356.788 355.506 
                 L 360.552 354.808 L 364.153 355.007 L 368.086 353.013 L 371.841 354.309 L 379.716 353.312 
                 L 383.39 353.013 L 387.291 352.515 L 391.38 352.315 L 394.93 351.717 L 398.999 351.817 
                 L 402.879 350.919 L 406.585 350.82 L 410.421 349.723 L 414.089 343.043 L 418.128 343.641 
                 L 421.981 347.131 L 425.662 345.735 L 429.646 345.336 L 433.448 343.541 L 437.292 343.043 
                 L 440.966 341.049 L 444.867 339.952 L 448.774 337.659 L 452.506 336.661 L 456.41 334.966 
                 L 460.138 333.969 L 464.01 331.576 L 467.853 328.386 L 471.665 323.7 L 475.441 316.72 
                 L 479.305 313.929 L 483.118 309.143 L 486.993 305.852 L 490.805 299.77 L 494.659 293.389 
                 L 498.443 286.908 L 502.252 281.424 L 506.169 277.237 "
          stroke="rgb(55,126,184)" fill="none" stroke-width="0.5"/>
      </g>
    </g>
    <!-- selection_sort vs size -->
    <g id="selection_sort_vs_size">
      <defs>
        <clipPath id="clipPath4">
          <rect x="74.5" y="18.5" width="473" height="339"/>
        </clipPath>
      </defs>
      <g clip-path="url(#clipPath4)">
        <path d="M 131.292 357.301 L 146.437 357.301 L 153.086 357.201 L 164.972 357.4 L 170.333 357.4 
                 L 175.369 357.101 L 184.608 357.201 L 192.921 357.301 L 207.404 357.201 L 210.662 357.101 
                 L 213.797 357.201 L 216.818 357.101 L 232.945 357.001 L 237.693 356.902 L 242.184 357.001 
                 L 244.342 356.702 L 248.496 356.902 L 252.452 356.702 L 268.238 356.603 L 271.373 356.503 
                 L 275.864 356.204 L 284.177 356.304 L 288.042 356.204 L 298.66 355.705 L 302.976 354.708 
                 L 307.079 355.506 L 310.988 355.207 L 314.722 355.207 L 318.296 355.007 L 322.556 354.609 
                 L 325.814 353.412 L 329.715 354.11 L 337.701 353.611 L 341.092 353.312 L 344.986 352.315 
                 L 349.31 351.916 L 352.845 351.318 L 356.788 350.919 L 360.552 350.321 L 364.153 346.532 
                 L 368.086 348.726 L 371.841 347.928 L 375.872 346.931 L 379.716 345.735 L 383.39 344.937 
                 L 387.291 343.641 L 391.38 342.145 L 394.93 341.049 L 398.999 339.254 L 402.879 337.659 
                 L 406.585 335.864 L 410.421 325.096 L 414.089 325.694 L 418.128 328.685 L 421.981 326.591 
                 L 425.662 323.101 L 429.646 313.33 L 433.448 316.321 L 437.292 312.533 L 444.867 303.36 
                 L 448.774 297.776 L 452.506 289.201 L 456.41 286.31 L 464.01 272.152 L 467.853 260.885 
                 L 471.665 255.301 L 479.305 234.264 L 483.118 221.8 L 486.993 197.273 L 490.805 195.578 
                 L 494.659 178.827 L 498.443 89.3909 L 502.252 60.875 "
          stroke="rgb(77,175,74)" fill="none" stroke-width="0.5"/>
      </g>
    </g>
    <!-- merge_sort vs size -->
    <g id="merge_sort_vs_size">
      <defs>
        <clipPath id="clipPath5">
          <rect x="74.5" y="18.5" width="473" height="339"/>
        </clipPath>
      </defs>
      <g clip-path="url(#clipPath5)">
        <path d="M 131.292 356.902 L 131.292 354.908 L 131.292 357.001 L 146.437 357.001 L 146.437 353.213 
                 L 153.086 357.001 L 159.241 356.204 L 164.972 357.001 L 170.333 356.902 L 175.369 355.007 
                 L 180.117 356.902 L 184.608 356.702 L 192.921 356.503 L 196.785 356.702 L 207.404 356.503 
                 L 213.797 356.702 L 216.818 356.204 L 222.548 356.603 L 225.272 355.905 L 230.465 356.603 
                 L 232.945 356.403 L 242.184 356.403 L 244.342 355.905 L 248.496 356.304 L 252.452 356.304 
                 L 259.84 356.004 L 264.98 356.004 L 268.238 355.406 L 271.373 356.004 L 275.864 355.107 
                 L 280.125 355.905 L 284.177 356.004 L 291.734 355.705 L 295.269 354.808 L 298.66 355.506 
                 L 307.079 355.207 L 314.722 355.207 L 318.296 354.01 L 322.556 355.007 L 325.814 355.007 
                 L 329.715 354.708 L 337.701 354.708 L 341.092 354.11 L 344.986 354.409 L 349.31 354.21 
                 L 352.845 353.811 L 356.788 353.911 L 360.552 353.312 L 364.153 353.412 L 368.086 353.013 
                 L 371.841 350.72 L 375.872 353.113 L 383.39 352.614 L 387.291 352.714 L 391.38 349.922 
                 L 394.93 351.916 L 398.999 351.119 L 402.879 351.219 L 406.585 350.919 L 410.421 350.82 
                 L 414.089 344.738 L 418.128 348.227 L 421.981 349.723 L 425.662 349.324 L 429.646 349.025 
                 L 433.448 344.339 L 437.292 347.928 L 440.966 347.928 L 448.774 347.031 L 452.506 341.447 
                 L 456.41 346.233 L 460.138 345.635 L 464.01 344.139 L 467.853 343.741 L 475.441 342.345 
                 L 483.118 341.148 L 486.993 340.251 L 490.805 339.653 L 494.659 338.855 L 498.443 338.257 
                 L 506.169 335.664 "
          stroke="rgb(152,78,163)" fill="none" stroke-width="0.5"/>
      </g>
    </g>
    <!-- quick_sort_array vs size -->
    <g id="quick_sort_array_vs_size">
      <defs>
        <clipPath id="clipPath6">
          <rect x="74.5" y="18.5" width="473" height="339"/>
        </clipPath>
      </defs>
      <g clip-path="url(#clipPath6)">
        <path d="M 131.292 354.309 L 131.292 357.001 L 131.292 356.603 L 139.209 357.001 L 146.437 356.902 
                 L 146.437 356.603 L 153.086 356.603 L 153.086 357.001 L 164.972 356.802 L 170.333 356.503 
                 L 175.369 355.506 L 180.117 356.702 L 184.608 356.802 L 184.608 356.603 L 188.869 355.905 
                 L 192.921 356.104 L 196.785 356.603 L 210.662 356.304 L 213.797 356.304 L 216.818 356.004 
                 L 225.272 356.204 L 232.945 356.104 L 237.693 356.204 L 242.184 356.004 L 244.342 354.409 
                 L 248.496 355.905 L 259.84 355.606 L 264.98 355.606 L 268.238 355.207 L 271.373 355.705 
                 L 275.864 355.207 L 288.042 355.107 L 291.734 354.309 L 295.269 354.708 L 298.66 354.908 
                 L 302.976 354.708 L 307.079 354.708 L 310.988 354.409 L 314.722 354.409 L 318.296 353.213 
                 L 322.556 353.911 L 329.715 353.711 L 333.44 353.412 L 341.092 353.113 L 344.986 353.013 
                 L 349.31 352.515 L 352.845 351.119 L 356.788 352.315 L 360.552 352.216 L 364.153 350.919 
                 L 368.086 351.518 L 371.841 350.72 L 375.872 350.919 L 379.716 350.421 L 383.39 350.72 
                 L 387.291 349.224 L 391.38 349.224 L 394.93 349.424 L 398.999 340.251 L 402.879 348.327 
                 L 406.585 348.327 L 410.421 346.632 L 414.089 347.43 L 418.128 346.532 L 421.981 346.532 
                 L 425.662 346.034 L 429.646 344.738 L 433.448 340.949 L 437.292 343.84 L 440.966 343.541 
                 L 444.867 342.245 L 448.774 337.16 L 452.506 336.163 L 456.41 339.653 L 460.138 338.157 
                 L 464.01 337.659 L 467.853 336.861 L 471.665 335.964 L 475.441 335.365 L 483.118 332.673 
                 L 486.993 331.676 L 494.659 328.685 L 498.443 327.389 L 502.252 321.706 L 506.169 323.899 "
          stroke="rgb(255,127,0)" fill="none" stroke-width="0.5"/>
      </g>
    </g>
    <!-- quick_sort_in_place vs size -->
    <g id="quick_sort_in_place_vs_size">
      <defs>
        <clipPath id="clipPath7">
          <rect x="74.5" y="18.5" width="473" height="339"/>
        </clipPath>
      </defs>
      <g clip-path="url(#clipPath7)">
        <path d="M 131.292 357.101 L 146.437 357.101 L 146.437 356.902 L 153.086 357.101 L 159.241 356.503 
                 L 164.972 356.902 L 164.972 357.101 L 170.333 357.001 L 175.369 356.503 L 180.117 356.902 
                 L 184.608 356.902 L 213.797 356.802 L 216.818 356.603 L 225.272 356.802 L 230.465 356.603 
                 L 232.945 356.802 L 237.693 356.503 L 256.228 356.503 L 259.84 356.204 L 264.98 356.403 
                 L 268.238 355.905 L 271.373 356.304 L 275.864 356.104 L 291.734 356.004 L 295.269 355.606 
                 L 298.66 355.905 L 307.079 355.606 L 318.296 355.306 L 322.556 354.708 L 325.814 355.207 
                 L 329.715 354.908 L 333.44 355.007 L 337.701 354.808 L 341.092 353.911 L 344.986 354.509 
                 L 349.31 354.309 L 352.845 353.611 L 356.788 353.811 L 360.552 353.611 L 364.153 353.811 
                 L 368.086 353.512 L 371.841 353.512 L 375.872 353.113 L 379.716 353.013 L 383.39 352.714 
                 L 387.291 352.614 L 391.38 352.216 L 394.93 352.116 L 398.999 350.421 L 402.879 351.617 
                 L 406.585 350.421 L 410.421 351.019 L 414.089 350.62 L 418.128 350.022 L 421.981 349.922 
                 L 425.662 349.524 L 429.646 349.524 L 433.448 346.831 L 437.292 348.427 L 440.966 342.345 
                 L 444.867 347.23 L 448.774 347.031 L 452.506 343.94 L 456.41 345.635 L 460.138 345.336 
                 L 467.853 344.339 L 471.665 343.541 L 475.441 342.644 L 479.305 342.145 L 483.118 341.348 
                 L 486.993 340.65 L 494.659 339.054 L 498.443 337.858 L 502.252 337.06 L 506.169 336.362 
                 L 509.908 335.166 "
          stroke="rgb(152,169,234)" fill="none" stroke-width="0.5"/>
      </g>
    </g>
    <!-- Legend -->
    <g id="Legend">
      <rect x="90.5" y="33.5" width="200" height="90" stroke="black" fill="none" stroke-width="0.5"/>
      <defs>
        <clipPath id="clipPath8">
          <rect x="90.5" y="33.5" width="200" height="90"/>
        </clipPath>
      </defs>
      <g clip-path="url(#clipPath8)">
        <path d="M 95.5 42.5 L 109.5 42.5 "
          stroke="rgb(228,28,28)" fill="none" stroke-width="0.5"/>
        <g font-family="Helvetica" font-size="12" fill="black">
          <text x="114.5" y="46.8037">bubble</text>
          <text x="150.535" y="49.3139" font-size="9">s</text>
          <text x="155.035" y="46.8037">ort vs size</text>
        </g>
        <path d="M 95.5 56.5 L 109.5 56.5 "
          stroke="rgb(55,126,184)" fill="none" stroke-width="0.5"/>
        <g font-family="Helvetica" font-size="12" fill="black">
          <text x="114.5" y="61.2037">insertion</text>
          <text x="159.857" y="63.7139" font-size="9">s</text>
          <text x="164.357" y="61.2037">ort vs size</text>
        </g>
        <path d="M 95.5 71.5 L 109.5 71.5 "
          stroke="rgb(77,175,74)" fill="none" stroke-width="0.5"/>
        <g font-family="Helvetica" font-size="12" fill="black">
          <text x="114.5" y="75.6037">selection</text>
          <text x="161.861" y="78.1139" font-size="9">s</text>
          <text x="166.361" y="75.6037">ort vs size</text>
        </g>
        <path d="M 95.5 85.5 L 109.5 85.5 "
          stroke="rgb(152,78,163)" fill="none" stroke-width="0.5"/>
        <g font-family="Helvetica" font-size="12" fill="black">
          <text x="114.5" y="90.0037">merge</text>
          <text x="148.514" y="92.5139" font-size="9">s</text>
          <text x="153.014" y="90.0037">ort vs size</text>
        </g>
        <path d="M 95.5 100.5 L 109.5 100.5 "
          stroke="rgb(255,127,0)" fill="none" stroke-width="0.5"/>
        <g font-family="Helvetica" font-size="12" fill="black">
          <text x="114.5" y="104.404">quick</text>
          <text x="142.514" y="106.914" font-size="9">s</text>
          <text x="147.014" y="104.404">ort</text>
          <text x="161.018" y="106.914" font-size="9">a</text>
          <text x="166.023" y="104.404">rray vs size</text>
        </g>
        <path d="M 95.5 114.5 L 109.5 114.5 "
          stroke="rgb(152,169,234)" fill="none" stroke-width="0.5"/>
        <g font-family="Helvetica" font-size="12" fill="black">
          <text x="114.5" y="118.804">quick</text>
          <text x="142.514" y="121.314" font-size="9">s</text>
          <text x="147.014" y="118.804">ort</text>
          <text x="161.018" y="121.314" font-size="9">i</text>
          <text x="163.017" y="118.804">n</text>
          <text x="169.691" y="121.314" font-size="9">p</text>
          <text x="174.696" y="118.804">lace vs size</text>
        </g>
      </g>
    </g>
  </g>
  <!-- Foreground -->
  <g id="Foreground">
    <!-- Y Axis -->
    <g id="Y_Axis">
      <g transform="translate(14.0188,188) rotate(-90) translate(-14.0188,-188)" font-family="Helvetica" font-size="12" fill="black">
        <text x="-9.98711" y="188">time cost</text>
      </g>
      <!-- Y Labels -->
      <g id="Y_Labels">
        <g font-family="Helvetica" font-size="12" fill="black">
          <text x="57.4262" y="361.804">0</text>
        </g>
        <g font-family="Helvetica" font-size="12" fill="black">
          <text x="27.3969" y="311.951">0.0005</text>
        </g>
        <g font-family="Helvetica" font-size="12" fill="black">
          <text x="27.3969" y="262.098">0.0010</text>
        </g>
        <g font-family="Helvetica" font-size="12" fill="black">
          <text x="27.3969" y="212.245">0.0015</text>
        </g>
        <g font-family="Helvetica" font-size="12" fill="black">
          <text x="27.3969" y="162.392">0.0020</text>
        </g>
        <g font-family="Helvetica" font-size="12" fill="black">
          <text x="27.3969" y="112.539">0.0025</text>
        </g>
        <g font-family="Helvetica" font-size="12" fill="black">
          <text x="27.3969" y="62.6861">0.0030</text>
        </g>
      </g>
      <path d="M 66.5 357.5 L 74.5 357.5 M 70.5 347.529 L 74.5 347.529 M 70.5 337.559 L 74.5 337.559 
               M 70.5 327.588 L 74.5 327.588 M 70.5 317.618 L 74.5 317.618 M 66.5 307.647 L 74.5 307.647 
               M 70.5 297.676 L 74.5 297.676 M 70.5 287.706 L 74.5 287.706 M 70.5 277.735 L 74.5 277.735 
               M 70.5 267.765 L 74.5 267.765 M 66.5 257.794 L 74.5 257.794 M 70.5 247.824 L 74.5 247.824 
               M 70.5 237.853 L 74.5 237.853 M 70.5 227.882 L 74.5 227.882 M 70.5 217.912 L 74.5 217.912 
               M 66.5 207.941 L 74.5 207.941 M 70.5 197.971 L 74.5 197.971 M 70.5 188 L 74.5 188 M 70.5 178.029 L 74.5 178.029 
               M 70.5 168.059 L 74.5 168.059 M 66.5 158.088 L 74.5 158.088 M 70.5 148.118 L 74.5 148.118 
               M 70.5 138.147 L 74.5 138.147 M 70.5 128.176 L 74.5 128.176 M 70.5 118.206 L 74.5 118.206 
               M 66.5 108.235 L 74.5 108.235 M 70.5 98.2647 L 74.5 98.2647 M 70.5 88.2941 L 74.5 88.2941 
               M 70.5 78.3235 L 74.5 78.3235 M 70.5 68.3529 L 74.5 68.3529 M 66.5 58.3824 L 74.5 58.3824 
               M 70.5 48.4118 L 74.5 48.4118 M 70.5 38.4412 L 74.5 38.4412 M 70.5 28.4706 L 74.5 28.4706 
               M 70.5 18.5 L 74.5 18.5 "
        stroke="black" fill="none" stroke-width="0.5"/>
    </g>
    <!-- X Axis -->
    <g id="X_Axis">
      <g font-family="Helvetica" font-size="12" fill="black">
        <text x="270.646" y="395">size of integers</text>
      </g>
      <g>
        <g font-family="Helvetica" font-size="12" fill="black">
          <text x="124.619" y="376.69">10</text>
        </g>
        <g font-family="Helvetica" font-size="12" fill="black">
          <text x="312.546" y="376.69">100</text>
        </g>
        <g font-family="Helvetica" font-size="12" fill="black">
          <text x="500.472" y="376.69">1000</text>
        </g>
      </g>
      <path d="M 131.292 365.5 L 131.292 357.5 M 322.556 365.5 L 322.556 357.5 M 513.82 365.5 L 513.82 357.5 
               M 88.8608 361.5 L 88.8608 357.5 M 101.665 361.5 L 101.665 357.5 M 112.757 361.5 L 112.757 357.5 
               M 122.541 361.5 L 122.541 357.5 M 188.869 361.5 L 188.869 357.5 M 222.548 361.5 L 222.548 357.5 
               M 246.445 361.5 L 246.445 357.5 M 264.98 361.5 L 264.98 357.5 M 280.125 361.5 L 280.125 357.5 
               M 292.929 361.5 L 292.929 357.5 M 304.021 361.5 L 304.021 357.5 M 313.805 361.5 L 313.805 357.5 
               M 380.132 361.5 L 380.132 357.5 M 413.812 361.5 L 413.812 357.5 M 437.709 361.5 L 437.709 357.5 
               M 456.244 361.5 L 456.244 357.5 M 471.388 361.5 L 471.388 357.5 M 484.193 361.5 L 484.193 357.5 
               M 495.285 361.5 L 495.285 357.5 M 505.068 361.5 L 505.068 357.5 "
        stroke="black" fill="none" stroke-width="0.5"/>
    </g>
    <g font-family="Helvetica" font-size="12" fill="black">
      <text x="239.311" y="14.0188">time vs size in small period</text>
    </g>
    <path d="M 547.5 357.5 L 547.5 18.5 L 74.5 18.5 L 74.5 357.5 L 547.5 357.5 z "
      stroke="black" stroke-linecap="square" fill="none" stroke-width="0.5"/>
  </g>
</g>
</svg>
