<?xml version="1.0" encoding="utf-8" standalone="no"?>
<!-- Generator: DataGraph - https://www.visualdatatools.com/DataGraph/index.html  --><!DOCTYPE svg PUBLIC "-//W3C//DTD SVG 1.1//EN" "http://www.w3.org/Graphics/SVG/1.1/DTD/svg11.dtd">
<svg width="563" height="402" version="1.1" xmlns="http://www.w3.org/2000/svg" xmlns:xlink="http://www.w3.org/1999/xlink">
<g>
  <!-- Background -->
  <g id="Background">
    <defs>
      <clipPath id="clipPath">
        <rect x="74.5" y="18.5" width="473" height="339"/>
      </clipPath>
    </defs>
    <!-- Grid -->
    <g id="Grid" clip-path="url(#clipPath)">
      <path d="M 74.5 330.5 L 547.5 330.5 M 74.5 289.975 L 547.5 289.975 M 74.5 249.45 L 547.5 249.45 
               M 74.5 208.925 L 547.5 208.925 M 74.5 168.4 L 547.5 168.4 M 74.5 127.875 L 547.5 127.875 
               M 74.5 87.3506 L 547.5 87.3506 M 74.5 46.8257 L 547.5 46.8257 "
        stroke="black" stroke-dasharray="0.00997506,3.99002" stroke-linecap="round" fill="none" stroke-width="0.5"/>
    </g>
  </g>
  <!-- Commands -->
  <g id="Commands">
    <!-- bubble_sort vs size -->
    <g id="bubble_sort_vs_size">
      <defs>
        <clipPath id="clipPath2">
          <rect x="74.5" y="18.5" width="473" height="339"/>
        </clipPath>
      </defs>
      <g clip-path="url(#clipPath2)">
        <path d="M 129.932 298.965 L 132.813 298.965 L 135.443 306.101 L 137.862 289.975 L 140.102 318.301 
                 L 142.187 306.101 L 144.138 286.766 L 145.97 286.766 L 147.698 284.053 L 149.332 284.053 
                 L 152.357 277.776 L 153.763 276.098 L 156.393 279.63 L 158.812 274.567 L 161.052 274.567 
                 L 163.137 270.64 L 165.088 268.437 L 166.92 263.899 L 169.476 262.368 L 171.067 260.959 
                 L 173.307 260.959 L 175.392 256.763 L 177.343 255.727 L 179.762 251.304 L 182.002 249.806 
                 L 184.087 250.169 L 186.038 243.279 L 188.312 241.178 L 190.426 240.744 L 192.402 230.47 
                 L 194.615 235.734 L 198.606 230.711 L 200.712 227.202 L 205.037 223.535 L 206.988 221.195 
                 L 209.262 217.225 L 211.171 215.303 L 213.352 213.434 L 215.386 210.74 L 217.46 209.138 
                 L 219.556 205.629 L 221.662 204.858 L 223.767 197.208 L 225.861 199.463 L 228.056 196.257 
                 L 230.102 191.76 L 232.224 191.933 L 234.302 189.802 L 236.337 188.301 L 238.493 184.873 
                 L 240.584 182.994 L 242.612 180.748 L 244.717 177.77 L 246.811 175.612 L 248.888 172.214 
                 L 250.997 170.763 L 253.071 167.983 L 255.157 164.105 L 257.287 163.126 L 259.36 160.583 
                 L 261.456 158.391 L 263.526 155.435 L 265.633 153.076 L 267.698 150.361 L 271.892 145.966 
                 L 273.97 143.058 L 276.059 140.757 L 278.147 138.064 L 280.247 135.844 L 282.328 132.557 
                 L 286.515 127.276 L 288.601 125.082 L 290.685 122.365 L 292.773 120.143 L 294.868 117.565 
                 L 296.949 115.183 L 299.041 112.414 L 303.22 107.426 L 307.397 102.209 L 311.568 97.2031 
                 L 319.924 86.9976 L 322.011 84.6669 L 326.185 79.4737 L 328.275 76.7409 L 330.362 74.5196 
                 L 332.451 71.8749 L 336.626 66.8742 L 342.89 59.0195 "
          stroke="rgb(228,28,28)" fill="none" stroke-width="0.5"/>
      </g>
    </g>
    <!-- insertion_sort vs size -->
    <g id="insertion_sort_vs_size">
      <defs>
        <clipPath id="clipPath3">
          <rect x="74.5" y="18.5" width="473" height="339"/>
        </clipPath>
      </defs>
      <g clip-path="url(#clipPath3)">
        <path d="M 129.932 306.101 L 147.698 306.101 L 149.332 293.902 L 152.357 289.975 L 153.763 298.965 
                 L 156.393 289.975 L 158.812 289.975 L 161.052 293.902 L 163.137 293.902 L 165.088 289.975 
                 L 166.92 289.975 L 169.476 286.766 L 171.067 284.053 L 173.307 286.766 L 175.392 279.63 
                 L 177.343 281.703 L 179.762 276.098 L 182.002 274.567 L 184.087 281.703 L 186.038 269.504 
                 L 188.312 267.431 L 190.426 269.504 L 192.402 261.649 L 194.615 264.718 L 196.676 260.295 
                 L 198.606 257.863 L 200.712 254.28 L 202.952 252.943 L 205.037 251.304 L 206.988 248.76 
                 L 209.262 244.833 L 211.171 243.782 L 213.352 242.314 L 215.386 239.105 L 217.46 237.606 
                 L 219.556 235.256 L 221.662 233.896 L 223.767 231.71 L 225.861 228.12 L 228.056 223.779 
                 L 230.102 219.967 L 232.224 220.984 L 234.302 218.512 L 236.337 218.152 L 238.493 213.48 
                 L 240.584 211.994 L 242.612 208.785 L 244.717 205.139 L 246.811 205.425 L 248.888 203.591 
                 L 253.071 196.938 L 255.157 194.747 L 257.287 191.51 L 259.36 190.15 L 261.456 188.106 
                 L 263.526 184.633 L 265.633 183.837 L 267.698 180.543 L 269.809 178.624 L 271.892 176.31 
                 L 273.97 173.814 L 276.059 171.486 L 278.147 167.511 L 280.247 166.851 L 282.328 163.284 
                 L 284.422 161.302 L 286.515 158.672 L 288.601 156.524 L 290.685 154.166 L 294.868 149.07 
                 L 296.949 147.017 L 299.041 144.325 L 301.135 142.297 L 303.22 140.018 L 307.397 134.736 
                 L 309.479 132.48 L 311.568 129.774 L 313.661 127.623 L 326.185 113.247 L 328.275 110.565 
                 L 330.362 108.455 L 332.451 105.735 L 334.538 103.329 L 336.626 100.611 L 338.716 98.5461 
                 L 340.803 95.9284 L 342.89 92.8734 L 344.978 91.4622 L 347.066 88.8766 L 349.154 86.6143 
                 L 351.242 84.0489 L 355.419 79.3641 L 359.594 74.4783 L 363.769 69.7268 L 365.858 66.7658 
                 L 367.945 64.2545 L 374.209 57.3615 "
          stroke="rgb(55,126,184)" fill="none" stroke-width="0.5"/>
      </g>
    </g>
    <!-- selection_sort vs size -->
    <g id="selection_sort_vs_size">
      <defs>
        <clipPath id="clipPath4">
          <rect x="74.5" y="18.5" width="473" height="339"/>
        </clipPath>
      </defs>
      <g clip-path="url(#clipPath4)">
        <path d="M 129.932 293.902 L 129.932 298.965 L 132.813 289.975 L 135.443 293.902 L 140.102 293.902 
                 L 142.187 284.053 L 144.138 286.766 L 145.97 284.053 L 147.698 281.703 L 149.332 276.098 
                 L 152.357 277.776 L 153.763 276.098 L 156.393 274.567 L 158.812 269.504 L 161.052 269.504 
                 L 163.137 268.437 L 165.088 268.437 L 166.92 264.718 L 169.476 260.959 L 171.067 257.305 
                 L 173.307 259.655 L 175.392 252.943 L 179.762 248.425 L 182.002 245.664 L 184.087 245.383 
                 L 186.038 241.4 L 188.312 238.154 L 190.426 235.896 L 192.402 225.77 L 194.615 231.204 
                 L 196.676 229.425 L 200.712 224.877 L 202.952 221.99 L 205.037 219.835 L 206.988 216.725 
                 L 209.262 214.609 L 211.171 212.59 L 213.352 209.644 L 219.556 202.928 L 223.767 198.386 
                 L 225.861 195.453 L 234.302 185.522 L 236.337 183.568 L 238.493 181.07 L 240.584 178.263 
                 L 242.612 176.282 L 244.717 172.425 L 246.811 171.162 L 257.287 159.099 L 263.526 151.577 
                 L 265.633 149.44 L 267.698 146.673 L 269.809 144.524 L 271.892 141.941 L 280.247 132.368 
                 L 282.328 129.544 L 288.601 122.409 L 290.685 120.19 L 292.773 117.511 L 294.868 115.387 
                 L 296.949 113.052 L 299.041 109.964 L 301.135 108.01 L 305.308 103.205 L 307.397 100.731 
                 L 309.479 98.4768 L 317.832 88.4834 L 319.924 86.2602 L 332.451 71.5248 L 336.626 66.3689 
                 L 338.716 64.3098 L 342.89 59.0765 L 344.978 56.9718 "
          stroke="rgb(77,175,74)" fill="none" stroke-width="0.5"/>
      </g>
    </g>
    <!-- merge_sort vs size -->
    <g id="merge_sort_vs_size">
      <defs>
        <clipPath id="clipPath5">
          <rect x="74.5" y="18.5" width="473" height="339"/>
        </clipPath>
      </defs>
      <g clip-path="url(#clipPath5)">
        <path d="M 129.932 298.965 L 129.932 289.975 L 132.813 289.975 L 135.443 286.766 L 144.138 286.766 
                 L 145.97 284.053 L 147.698 286.766 L 149.332 279.63 L 153.763 279.63 L 156.393 276.098 
                 L 158.812 281.703 L 161.052 274.567 L 163.137 277.776 L 165.088 274.567 L 166.92 273.158 
                 L 169.476 271.854 L 171.067 271.854 L 173.307 269.504 L 175.392 268.437 L 177.343 257.305 
                 L 179.762 265.577 L 182.002 265.577 L 184.087 263.117 L 186.038 260.295 L 188.312 260.959 
                 L 190.426 259.655 L 192.402 259.655 L 194.615 257.863 L 196.676 255.727 L 198.606 255.727 
                 L 200.712 254.28 L 202.952 252.943 L 205.037 251.304 L 206.988 250.169 L 213.352 245.383 
                 L 215.386 242.55 L 217.46 242.314 L 219.556 242.55 L 221.662 240.96 L 225.861 236.392 
                 L 228.056 236.06 L 230.102 233.896 L 234.302 231.582 L 236.337 229.998 L 238.493 228.979 
                 L 240.584 227.302 L 242.612 226.615 L 244.717 224.79 L 246.811 223.535 L 248.888 221.77 
                 L 250.997 220.165 L 253.071 218.271 L 255.157 217.683 L 257.287 215.456 L 259.36 214.658 
                 L 261.456 210.431 L 263.526 212.078 L 265.633 210.469 L 267.698 208.646 L 269.809 207.473 
                 L 271.892 206.132 L 273.97 204.608 L 276.059 203.462 L 278.147 202.025 L 280.247 200.391 
                 L 282.328 199.076 L 284.422 197.965 L 286.515 196.499 L 288.601 195.519 L 290.685 192.272 
                 L 292.773 192.436 L 296.949 190.066 L 299.041 188.333 L 303.22 186.148 L 305.308 184.793 
                 L 307.397 183.148 L 309.479 182.105 L 315.748 178.036 L 317.832 176.577 L 319.924 175.37 
                 L 322.011 174.012 L 324.097 173.055 L 326.185 171.582 L 328.275 170.353 L 330.362 168.478 
                 L 332.451 167.632 L 334.538 165.685 L 336.626 164.852 L 338.716 163.263 L 342.89 160.642 
                 L 344.978 159.222 L 349.154 157.264 L 351.242 154.364 L 353.331 154.383 L 355.419 152.501 
                 L 357.505 151.12 L 359.594 149.914 L 361.681 148.584 L 363.769 146.745 L 365.858 146.109 
                 L 367.945 145.099 L 370.033 143.54 L 376.297 139.541 L 378.385 138.074 L 380.472 137.011 
                 L 384.648 134.158 L 386.736 133.259 L 390.912 130.714 L 392.999 129.26 L 395.088 128.082 
                 L 399.263 125.089 L 401.351 124.031 L 403.439 122.54 L 407.615 120.34 L 413.878 116.069 
                 L 415.966 114.804 L 418.054 113.826 L 420.142 111.794 L 422.23 111.267 L 424.317 109.711 
                 L 428.493 107.488 L 430.581 105.929 L 432.669 104.176 L 434.757 103.673 L 443.108 98.1101 
                 L 445.196 97.1325 L 447.284 95.504 L 451.459 93.1186 L 453.547 92.1215 L 459.811 87.7246 
                 L 463.986 85.1332 L 466.074 84.293 L 468.162 82.5205 L 470.25 81.8082 L 489.04 69.9982 
                 L 491.128 68.8469 L 493.216 67.3213 L 495.304 66.2517 L 499.48 63.6395 "
          stroke="rgb(152,78,163)" fill="none" stroke-width="0.5"/>
      </g>
    </g>
    <!-- quick_sort_array vs size -->
    <g id="quick_sort_array_vs_size">
      <defs>
        <clipPath id="clipPath6">
          <rect x="74.5" y="18.5" width="473" height="339"/>
        </clipPath>
      </defs>
      <g clip-path="url(#clipPath6)">
        <path d="M 129.932 258.44 L 129.932 261.649 L 132.813 258.44 L 135.443 255.727 L 137.862 257.305 
                 L 140.102 252.943 L 144.138 252.105 L 145.97 250.539 L 147.698 249.45 L 149.332 239.105 
                 L 152.357 246.241 L 153.763 247.144 L 156.393 244.299 L 158.812 244.038 L 161.052 240.111 
                 L 163.137 240.111 L 165.088 237.787 L 166.92 237.606 L 169.476 236.06 L 171.067 236.902 
                 L 173.307 234.639 L 175.392 233.183 L 177.343 230.591 L 179.762 230.115 L 182.002 228.652 
                 L 184.087 228.12 L 186.038 220.638 L 188.312 224.877 L 190.426 221.99 L 192.402 223.057 
                 L 194.615 220.845 L 196.676 220.638 L 198.606 217.974 L 200.712 218.88 L 202.952 217.339 
                 L 205.037 214.953 L 206.988 213.802 L 209.262 212.809 L 211.171 212.59 L 213.352 209.865 
                 L 215.386 209.317 L 219.556 206.899 L 221.662 206.374 L 225.861 203.003 L 228.056 202.337 
                 L 230.102 200.435 L 232.224 199.076 L 234.302 198.136 L 236.337 196.36 L 238.493 195.453 
                 L 240.584 194.389 L 242.612 193.635 L 244.717 191.933 L 246.811 190.943 L 248.888 189.696 
                 L 250.997 187.294 L 253.071 186.598 L 255.157 186.206 L 257.287 184.092 L 259.36 182.954 
                 L 261.456 182.128 L 263.526 180.748 L 265.633 177.782 L 267.698 178.018 L 269.809 175.665 
                 L 271.892 175.966 L 273.97 174.443 L 276.059 173.529 L 278.147 171.799 L 280.247 170.321 
                 L 282.328 169.163 L 284.422 168.159 L 286.515 166.771 L 288.601 165.876 L 290.685 164.294 
                 L 292.773 162.839 L 294.868 162.184 L 299.041 159.817 L 301.135 157.931 L 303.22 156.856 
                 L 311.568 151.609 L 315.748 149.341 L 317.832 147.868 L 322.011 145.395 L 324.097 144.499 
                 L 330.362 140.399 L 332.451 139.541 L 336.626 136.661 L 340.803 134.368 L 342.89 133.216 
                 L 344.978 131.895 L 347.066 130.809 L 349.154 129.582 L 351.242 128.567 L 353.331 126.813 
                 L 355.419 126.024 L 357.505 124.93 L 361.681 122.39 L 363.769 121.082 L 365.858 119.407 
                 L 367.945 118.067 L 370.033 117.322 L 372.121 116.005 L 376.297 113.755 L 378.385 112.454 
                 L 380.472 110.9 L 384.648 108.687 L 386.736 107.557 L 388.824 106.106 L 392.999 103.984 
                 L 395.088 102.646 L 399.263 100.165 L 401.351 98.6386 L 403.439 97.411 L 405.527 96.3318 
                 L 409.702 93.5957 L 411.79 92.543 L 413.878 91.1768 L 415.966 90.0826 L 418.054 88.8513 
                 L 420.142 87.2966 L 422.23 86.54 L 424.317 83.8607 L 426.405 83.4327 L 428.493 82.6717 
                 L 430.581 81.513 L 434.757 78.8029 L 436.844 77.8899 L 438.932 76.3563 L 441.02 75.4632 
                 L 443.108 74.0616 L 451.459 69.1086 L 453.547 68.0083 L 455.635 66.4132 L 457.723 65.4632 
                 L 459.811 63.82 L 461.899 62.4317 L 463.986 61.3506 L 466.074 60.4063 L 468.162 59.1059 
                 L 470.25 57.9711 "
          stroke="rgb(255,127,0)" fill="none" stroke-width="0.5"/>
      </g>
    </g>
    <!-- quick_sort_in_place vs size -->
    <g id="quick_sort_in_place_vs_size">
      <defs>
        <clipPath id="clipPath7">
          <rect x="74.5" y="18.5" width="473" height="339"/>
        </clipPath>
      </defs>
      <g clip-path="url(#clipPath7)">
        <path d="M 129.932 262.368 L 129.932 261.649 L 132.813 259.655 L 135.443 260.295 L 137.862 258.44 
                 L 140.102 249.102 L 142.187 251.7 L 144.138 251.304 L 145.97 253.377 L 147.698 249.45 
                 L 149.332 247.144 L 152.357 240.53 L 153.763 247.144 L 156.393 244.564 L 158.812 244.299 
                 L 161.052 240.53 L 163.137 239.105 L 165.088 239.501 L 169.476 238.154 L 171.067 235.414 
                 L 173.307 235.1 L 175.392 233.896 L 177.343 232.365 L 179.762 230.956 L 182.002 230.47 
                 L 184.087 222.44 L 186.038 226.329 L 188.312 225.862 L 190.426 223.779 L 192.402 223.697 
                 L 194.615 222.669 L 196.676 220.914 L 198.606 220.502 L 200.712 219.256 L 202.952 216.946 
                 L 205.037 216.238 L 206.988 214.177 L 209.262 213.029 L 211.171 211.744 L 213.352 211.952 
                 L 215.386 209.68 L 217.46 208.269 L 219.556 207.669 L 221.662 203.18 L 223.767 205.083 
                 L 225.861 203.385 L 228.056 203.282 L 230.102 200.764 L 232.224 199.524 L 234.302 197.463 
                 L 236.337 197.871 L 238.493 195.968 L 242.612 194.389 L 246.811 191.866 L 248.888 190.754 
                 L 250.997 189.426 L 253.071 187.512 L 255.157 186.528 L 257.287 184.695 L 259.36 184.23 
                 L 261.456 182.548 L 263.526 181.216 L 265.633 179.521 L 267.698 179.161 L 269.809 177.692 
                 L 276.059 174.324 L 280.247 171.203 L 282.328 169.788 L 284.422 167.683 L 286.515 166.56 
                 L 288.601 166.312 L 292.773 162.801 L 294.868 161.866 L 296.949 160.758 L 299.041 159.94 
                 L 303.22 157.964 L 305.308 156.591 L 307.397 155.589 L 309.479 154.1 L 311.568 151.96 
                 L 313.661 151.268 L 315.748 150.11 L 324.097 145.012 L 326.185 143.28 L 328.275 143.06 
                 L 334.538 138.858 L 336.626 137.749 L 342.89 133.788 L 344.978 132.275 L 347.066 131.791 
                 L 351.242 129.155 L 353.331 126.578 L 355.419 126.771 L 359.594 124.379 L 361.681 122.946 
                 L 363.769 121.841 L 365.858 120.421 L 367.945 117.916 L 370.033 117.968 L 372.121 116.82 
                 L 374.209 115.464 L 376.297 114.41 L 380.472 111.886 L 382.56 110.463 L 390.912 105.911 
                 L 392.999 104.233 L 395.088 103.37 L 405.527 97.1469 L 407.615 95.7559 L 409.702 94.6388 
                 L 411.79 93.2788 L 413.878 92.1202 L 415.966 90.5654 L 418.054 89.7982 L 420.142 88.6787 
                 L 422.23 87.195 L 424.317 85.0292 L 426.405 84.6816 L 428.493 83.6727 L 430.581 82.1517 
                 L 432.669 81.2509 L 434.757 77.0651 L 436.844 77.5857 L 438.932 77.4756 L 441.02 76.0138 
                 L 443.108 74.6799 L 445.196 73.8312 L 449.372 71.0502 L 451.459 70.0223 L 453.547 68.8497 
                 L 455.635 67.3129 L 457.723 66.2794 L 461.899 63.1599 L 463.986 62.3741 L 466.074 60.8857 
                 L 468.162 60.1109 L 470.25 59.0017 "
          stroke="rgb(152,169,234)" fill="none" stroke-width="0.5"/>
      </g>
    </g>
    <!-- Legend -->
    <g id="Legend">
      <rect x="314.5" y="248" width="200" height="90" stroke="black" fill="none" stroke-width="0.5"/>
      <defs>
        <clipPath id="clipPath8">
          <rect x="314.5" y="248" width="200" height="90"/>
        </clipPath>
      </defs>
      <g clip-path="url(#clipPath8)">
        <path d="M 319.5 256.5 L 333.5 256.5 "
          stroke="rgb(228,28,28)" fill="none" stroke-width="0.5"/>
        <g font-family="Helvetica" font-size="12" fill="black">
          <text x="338.5" y="261.304">bubble</text>
          <text x="374.535" y="263.814" font-size="9">s</text>
          <text x="379.035" y="261.304">ort vs size</text>
        </g>
        <path d="M 319.5 271.5 L 333.5 271.5 "
          stroke="rgb(55,126,184)" fill="none" stroke-width="0.5"/>
        <g font-family="Helvetica" font-size="12" fill="black">
          <text x="338.5" y="275.704">insertion</text>
          <text x="383.857" y="278.214" font-size="9">s</text>
          <text x="388.357" y="275.704">ort vs size</text>
        </g>
        <path d="M 319.5 285.5 L 333.5 285.5 "
          stroke="rgb(77,175,74)" fill="none" stroke-width="0.5"/>
        <g font-family="Helvetica" font-size="12" fill="black">
          <text x="338.5" y="290.104">selection</text>
          <text x="385.861" y="292.614" font-size="9">s</text>
          <text x="390.361" y="290.104">ort vs size</text>
        </g>
        <path d="M 319.5 300.5 L 333.5 300.5 "
          stroke="rgb(152,78,163)" fill="none" stroke-width="0.5"/>
        <g font-family="Helvetica" font-size="12" fill="black">
          <text x="338.5" y="304.504">merge</text>
          <text x="372.514" y="307.014" font-size="9">s</text>
          <text x="377.014" y="304.504">ort vs size</text>
        </g>
        <path d="M 319.5 314.5 L 333.5 314.5 "
          stroke="rgb(255,127,0)" fill="none" stroke-width="0.5"/>
        <g font-family="Helvetica" font-size="12" fill="black">
          <text x="338.5" y="318.904">quick</text>
          <text x="366.514" y="321.414" font-size="9">s</text>
          <text x="371.014" y="318.904">ort</text>
          <text x="385.018" y="321.414" font-size="9">a</text>
          <text x="390.023" y="318.904">rray vs size</text>
        </g>
        <path d="M 319.5 328.5 L 333.5 328.5 "
          stroke="rgb(152,169,234)" fill="none" stroke-width="0.5"/>
        <g font-family="Helvetica" font-size="12" fill="black">
          <text x="338.5" y="333.304">quick</text>
          <text x="366.514" y="335.814" font-size="9">s</text>
          <text x="371.014" y="333.304">ort</text>
          <text x="385.018" y="335.814" font-size="9">i</text>
          <text x="387.017" y="333.304">n</text>
          <text x="393.691" y="335.814" font-size="9">p</text>
          <text x="398.696" y="333.304">lace vs size</text>
        </g>
      </g>
    </g>
  </g>
  <!-- Foreground -->
  <g id="Foreground">
    <!-- Y Axis -->
    <g id="Y_Axis">
      <g transform="translate(14.0188,188) rotate(-90) translate(-14.0188,-188)" font-family="Helvetica" font-size="12" fill="black">
        <text x="-9.98711" y="188">time cost</text>
      </g>
      <!-- Y Labels -->
      <g id="Y_Labels">
        <g font-family="Helvetica" font-size="12" fill="black">
          <text x="40.4911" y="334.804">10</text>
          <text x="53.8388" y="329.47" font-size="9">−7</text>
        </g>
        <g font-family="Helvetica" font-size="12" fill="black">
          <text x="40.4911" y="294.279">10</text>
          <text x="53.8388" y="288.945" font-size="9">−6</text>
        </g>
        <g font-family="Helvetica" font-size="12" fill="black">
          <text x="40.4911" y="253.754">10</text>
          <text x="53.8388" y="248.42" font-size="9">−5</text>
        </g>
        <g font-family="Helvetica" font-size="12" fill="black">
          <text x="40.4911" y="213.229">10</text>
          <text x="53.8388" y="207.895" font-size="9">−4</text>
        </g>
        <g font-family="Helvetica" font-size="12" fill="black">
          <text x="40.4911" y="172.704">10</text>
          <text x="53.8388" y="167.37" font-size="9">−3</text>
        </g>
        <g font-family="Helvetica" font-size="12" fill="black">
          <text x="40.4911" y="132.179">10</text>
          <text x="53.8388" y="126.845" font-size="9">−2</text>
        </g>
        <g font-family="Helvetica" font-size="12" fill="black">
          <text x="40.4911" y="91.6543">10</text>
          <text x="53.8388" y="86.3202" font-size="9">−1</text>
        </g>
        <g font-family="Helvetica" font-size="12" fill="black">
          <text x="57.4262" y="51.1294">1</text>
        </g>
      </g>
      <path d="M 70.5 351.689 L 74.5 351.689 M 70.5 346.626 L 74.5 346.626 M 70.5 342.699 L 74.5 342.699 
               M 70.5 339.49 L 74.5 339.49 M 70.5 336.777 L 74.5 336.777 M 70.5 334.427 L 74.5 334.427 
               M 70.5 332.354 L 74.5 332.354 M 66.5 330.5 L 74.5 330.5 M 70.5 318.301 L 74.5 318.301 
               M 70.5 311.165 L 74.5 311.165 M 70.5 306.101 L 74.5 306.101 M 70.5 302.174 L 74.5 302.174 
               M 70.5 298.965 L 74.5 298.965 M 70.5 296.252 L 74.5 296.252 M 70.5 293.902 L 74.5 293.902 
               M 70.5 291.829 L 74.5 291.829 M 66.5 289.975 L 74.5 289.975 M 70.5 277.776 L 74.5 277.776 
               M 70.5 270.64 L 74.5 270.64 M 70.5 265.577 L 74.5 265.577 M 70.5 261.649 L 74.5 261.649 
               M 70.5 258.44 L 74.5 258.44 M 70.5 255.727 L 74.5 255.727 M 70.5 253.377 L 74.5 253.377 
               M 70.5 251.304 L 74.5 251.304 M 66.5 249.45 L 74.5 249.45 M 70.5 237.251 L 74.5 237.251 
               M 70.5 230.115 L 74.5 230.115 M 70.5 225.052 L 74.5 225.052 M 70.5 221.124 L 74.5 221.124 
               M 70.5 217.916 L 74.5 217.916 M 70.5 215.203 L 74.5 215.203 M 70.5 212.852 L 74.5 212.852 
               M 70.5 210.78 L 74.5 210.78 M 66.5 208.925 L 74.5 208.925 M 70.5 196.726 L 74.5 196.726 
               M 70.5 189.59 L 74.5 189.59 M 70.5 184.527 L 74.5 184.527 M 70.5 180.6 L 74.5 180.6 M 70.5 177.391 L 74.5 177.391 
               M 70.5 174.678 L 74.5 174.678 M 70.5 172.328 L 74.5 172.328 M 70.5 170.255 L 74.5 170.255 
               M 66.5 168.4 L 74.5 168.4 M 70.5 156.201 L 74.5 156.201 M 70.5 149.065 L 74.5 149.065 
               M 70.5 144.002 L 74.5 144.002 M 70.5 140.075 L 74.5 140.075 M 70.5 136.866 L 74.5 136.866 
               M 70.5 134.153 L 74.5 134.153 M 70.5 131.803 L 74.5 131.803 M 70.5 129.73 L 74.5 129.73 
               M 66.5 127.875 L 74.5 127.875 M 70.5 115.676 L 74.5 115.676 M 70.5 108.54 L 74.5 108.54 
               M 70.5 103.477 L 74.5 103.477 M 70.5 99.5498 L 74.5 99.5498 M 70.5 96.341 L 74.5 96.341 
               M 70.5 93.6279 L 74.5 93.6279 M 70.5 91.2778 L 74.5 91.2778 M 70.5 89.2049 L 74.5 89.2049 
               M 66.5 87.3506 L 74.5 87.3506 M 70.5 75.1514 L 74.5 75.1514 M 70.5 68.0153 L 74.5 68.0153 
               M 70.5 62.9522 L 74.5 62.9522 M 70.5 59.0249 L 74.5 59.0249 M 70.5 55.8161 L 74.5 55.8161 
               M 70.5 53.1031 L 74.5 53.1031 M 70.5 50.7529 L 74.5 50.7529 M 70.5 48.68 L 74.5 48.68 
               M 66.5 46.8257 L 74.5 46.8257 M 70.5 34.6265 L 74.5 34.6265 M 70.5 27.4904 L 74.5 27.4904 
               M 70.5 22.4273 L 74.5 22.4273 M 70.5 18.5 L 74.5 18.5 "
        stroke="black" fill="none" stroke-width="0.5"/>
    </g>
    <!-- X Axis -->
    <g id="X_Axis">
      <g font-family="Helvetica" font-size="12" fill="black">
        <text x="270.646" y="395">size of integers</text>
      </g>
      <g>
        <g font-family="Helvetica" font-size="12" fill="black">
          <text x="120.756" y="376.69">10</text>
          <text x="134.103" y="371.356" font-size="9">1</text>
        </g>
        <g font-family="Helvetica" font-size="12" fill="black">
          <text x="190.35" y="376.69">10</text>
          <text x="203.698" y="371.356" font-size="9">2</text>
        </g>
        <g font-family="Helvetica" font-size="12" fill="black">
          <text x="259.945" y="376.69">10</text>
          <text x="273.293" y="371.356" font-size="9">3</text>
        </g>
        <g font-family="Helvetica" font-size="12" fill="black">
          <text x="329.54" y="376.69">10</text>
          <text x="342.887" y="371.356" font-size="9">4</text>
        </g>
        <g font-family="Helvetica" font-size="12" fill="black">
          <text x="399.134" y="376.69">10</text>
          <text x="412.482" y="371.356" font-size="9">5</text>
        </g>
        <g font-family="Helvetica" font-size="12" fill="black">
          <text x="468.729" y="376.69">10</text>
          <text x="482.076" y="371.356" font-size="9">6</text>
        </g>
        <g font-family="Helvetica" font-size="12" fill="black">
          <text x="538.323" y="376.69">10</text>
          <text x="551.671" y="371.356" font-size="9">7</text>
        </g>
      </g>
      <path d="M 129.932 365.5 L 129.932 357.5 M 199.527 365.5 L 199.527 357.5 M 269.121 365.5 L 269.121 357.5 
               M 338.716 365.5 L 338.716 357.5 M 408.311 365.5 L 408.311 357.5 M 477.905 365.5 L 477.905 357.5 
               M 547.5 365.5 L 547.5 357.5 M 81.2876 361.5 L 81.2876 357.5 M 93.5426 361.5 L 93.5426 357.5 
               M 102.238 361.5 L 102.238 357.5 M 108.982 361.5 L 108.982 357.5 M 114.493 361.5 L 114.493 357.5 
               M 119.152 361.5 L 119.152 357.5 M 123.188 361.5 L 123.188 357.5 M 126.748 361.5 L 126.748 357.5 
               M 150.882 361.5 L 150.882 357.5 M 163.137 361.5 L 163.137 357.5 M 171.832 361.5 L 171.832 357.5 
               M 178.577 361.5 L 178.577 357.5 M 184.087 361.5 L 184.087 357.5 M 188.746 361.5 L 188.746 357.5 
               M 192.782 361.5 L 192.782 357.5 M 196.342 361.5 L 196.342 357.5 M 220.477 361.5 L 220.477 357.5 
               M 232.732 361.5 L 232.732 357.5 M 241.427 361.5 L 241.427 357.5 M 248.171 361.5 L 248.171 357.5 
               M 253.682 361.5 L 253.682 357.5 M 258.341 361.5 L 258.341 357.5 M 262.377 361.5 L 262.377 357.5 
               M 265.937 361.5 L 265.937 357.5 M 290.071 361.5 L 290.071 357.5 M 302.327 361.5 L 302.327 357.5 
               M 311.022 361.5 L 311.022 357.5 M 317.766 361.5 L 317.766 357.5 M 323.277 361.5 L 323.277 357.5 
               M 327.936 361.5 L 327.936 357.5 M 331.972 361.5 L 331.972 357.5 M 335.532 361.5 L 335.532 357.5 
               M 359.666 361.5 L 359.666 357.5 M 371.921 361.5 L 371.921 357.5 M 380.616 361.5 L 380.616 357.5 
               M 387.361 361.5 L 387.361 357.5 M 392.871 361.5 L 392.871 357.5 M 397.53 361.5 L 397.53 357.5 
               M 401.566 361.5 L 401.566 357.5 M 405.126 361.5 L 405.126 357.5 M 429.261 361.5 L 429.261 357.5 
               M 441.516 361.5 L 441.516 357.5 M 450.211 361.5 L 450.211 357.5 M 456.955 361.5 L 456.955 357.5 
               M 462.466 361.5 L 462.466 357.5 M 467.125 361.5 L 467.125 357.5 M 471.161 361.5 L 471.161 357.5 
               M 474.721 361.5 L 474.721 357.5 M 498.855 361.5 L 498.855 357.5 M 511.11 361.5 L 511.11 357.5 
               M 519.806 361.5 L 519.806 357.5 M 526.55 361.5 L 526.55 357.5 M 532.061 361.5 L 532.061 357.5 
               M 536.72 361.5 L 536.72 357.5 M 540.756 361.5 L 540.756 357.5 M 544.316 361.5 L 544.316 357.5 "
        stroke="black" fill="none" stroke-width="0.5"/>
    </g>
    <g font-family="Helvetica" font-size="12" fill="black">
      <text x="239.97" y="14.0188">time vs size in large period</text>
    </g>
    <path d="M 547.5 357.5 L 547.5 18.5 L 74.5 18.5 L 74.5 357.5 L 547.5 357.5 z "
      stroke="black" stroke-linecap="square" fill="none" stroke-width="0.5"/>
  </g>
</g>
</svg>
