<?xml version="1.0" encoding="utf-8" standalone="no"?>
<!-- Generator: DataGraph - https://www.visualdatatools.com/DataGraph/index.html  --><!DOCTYPE svg PUBLIC "-//W3C//DTD SVG 1.1//EN" "http://www.w3.org/Graphics/SVG/1.1/DTD/svg11.dtd">
<svg width="563" height="402" version="1.1" xmlns="http://www.w3.org/2000/svg" xmlns:xlink="http://www.w3.org/1999/xlink">
<g>
  <!-- Background -->
  <g id="Background">
    <defs>
      <clipPath id="clipPath">
        <rect x="74.5" y="18.5" width="473" height="339"/>
      </clipPath>
    </defs>
    <!-- Grid -->
    <g id="Grid" clip-path="url(#clipPath)">
      <path d="M 74.5 338.7 L 547.5 338.7 M 74.5 270.557 L 547.5 270.557 M 74.5 202.415 L 547.5 202.415 
               M 74.5 134.272 L 547.5 134.272 M 74.5 66.1296 L 547.5 66.1296 "
        stroke="black" stroke-dasharray="0.00997506,3.99002" stroke-linecap="round" fill="none" stroke-width="0.5"/>
    </g>
  </g>
  <!-- Commands -->
  <g id="Commands">
    <!-- bubble_sort vs size -->
    <g id="bubble_sort_vs_size">
      <defs>
        <clipPath id="clipPath2">
          <rect x="74.5" y="18.5" width="473" height="339"/>
        </clipPath>
      </defs>
      <g clip-path="url(#clipPath2)">
        <path d="M 130.296 285.675 L 154.065 318.187 L 172.876 270.557 L 188.445 260.6 L 201.726 265.162 
                 L 213.307 250.044 L 223.574 238.045 L 232.795 240.087 L 241.164 229.531 L 248.824 231.049 
                 L 255.887 221.767 L 262.439 213.828 L 268.549 204.882 L 274.273 210.536 L 279.656 204.882 
                 L 284.737 200.69 L 289.549 202.415 L 294.118 196.53 L 298.467 193.315 L 302.617 195.109 
                 L 306.585 187.416 L 310.387 180.741 L 314.036 183.42 L 317.543 183.42 L 320.92 182.199 
                 L 324.175 178.024 L 327.317 176.754 L 330.354 173.241 L 333.293 167.993 L 336.139 169.706 
                 L 338.898 166.198 L 341.576 167.625 L 344.177 162.907 L 346.705 162.751 L 349.165 161.094 
                 L 351.56 159.664 L 353.893 159.945 L 356.167 158.568 L 358.386 156.366 L 360.552 153.398 
                 L 362.667 152.838 L 364.734 150.088 L 366.755 151.012 L 370.666 147.112 L 372.56 140.728 
                 L 374.415 146.39 L 376.233 144.408 L 378.015 144.828 L 379.763 142.007 L 381.478 141.024 
                 L 383.161 140.508 L 384.813 138.874 L 386.436 138.123 L 388.03 137.522 L 389.596 137.456 
                 L 391.136 135.174 L 392.65 135.853 L 394.14 131.559 L 395.605 132.716 L 397.047 131.94 
                 L 398.466 120.773 L 399.863 129.474 L 401.24 129.727 L 402.595 128.975 L 403.931 126.462 
                 L 405.247 127.106 L 406.544 125.523 L 407.823 126.146 L 409.084 123.073 L 410.328 122.911 
                 L 411.555 120.773 L 412.766 121.112 L 413.961 120.735 L 415.14 118.919 L 416.304 119.416 
                 L 417.453 118.188 L 418.588 116.648 L 419.708 115.812 L 420.816 113.289 L 421.909 117.142 
                 L 422.99 116.485 L 424.058 113.641 L 425.113 114.569 L 426.157 114.814 L 427.188 111.702 
                 L 428.208 111.812 L 429.216 111.073 L 430.214 111.509 L 431.2 109.778 L 432.176 109.96 
                 L 433.142 108.167 L 434.097 108.811 L 435.042 107.778 L 435.978 106.546 L 436.904 106.686 
                 L 437.821 105.076 L 438.728 104.12 L 439.627 105.655 L 440.516 104.551 L 441.397 99.3002 
                 L 442.27 101.563 L 443.134 102.784 L 443.99 100.523 L 444.838 100.185 L 445.678 100.523 
                 L 446.51 99.0112 L 447.335 97.9516 L 448.153 97.0967 L 448.963 98.6893 L 449.766 97.6753 
                 L 450.562 94.2547 L 451.35 96.5954 L 452.133 97.1304 L 452.908 95.8105 L 453.677 96.5788 
                 L 454.439 94.316 L 455.195 94.4698 L 455.945 92.7474 L 456.689 93.4244 L 457.426 91.9436 
                 L 458.158 90.0249 L 458.883 91.1336 L 459.603 91.1198 L 461.026 89.8528 L 461.73 89.5901 
                 L 462.427 88.8157 L 463.12 86.5127 L 463.807 90.0381 L 464.489 87.654 L 465.838 87.4952 
                 L 466.505 87.4952 L 467.167 87.144 L 468.477 85.8714 L 469.768 84.0922 L 471.041 85.289 
                 L 471.671 82.0063 L 472.296 83.5435 L 472.917 80.933 L 473.534 82.5993 L 474.147 82.0976 
                 L 474.756 81.7644 L 475.361 80.9525 L 475.961 80.3435 L 476.558 80.6803 L 477.74 78.0255 
                 L 478.325 78.8782 L 478.906 76.9398 L 479.484 78.7964 L 480.058 76.6344 L 480.628 77.1968 
                 L 481.195 77.0594 L 481.758 77.6301 L 482.318 76.9142 L 482.874 76.8206 L 483.427 75.7939 
                 L 483.977 73.7723 L 484.523 75.7857 L 485.066 73.0607 L 485.606 73.4447 L 486.143 73.2709 
                 L 486.676 74.2435 L 487.206 74.0108 L 487.734 71.3529 L 488.258 72.8742 L 488.779 73.1656 
                 L 489.297 72.1038 L 489.812 72.2563 L 490.325 70.7449 L 490.834 71.5229 L 491.341 71.5087 
                 L 491.844 69.5517 L 492.345 71.3247 L 492.844 69.6382 L 493.339 69.9666 L 493.832 68.9792 
                 L 494.322 67.1288 L 494.81 68.4816 L 495.295 68.7585 L 495.777 67.7225 L 496.734 67.5543 
                 L 497.209 66.0115 L 497.681 66.2423 L 498.151 66.6611 L 498.618 65.1459 L 499.083 65.8469 
                 L 499.546 66.9701 L 500.006 64.635 L 500.464 64.562 L 500.919 64.1993 L 501.373 63.1641 
                 L 501.824 64.2771 L 502.273 64.1384 "
          stroke="rgb(228,28,28)" fill="none" stroke-width="0.5"/>
      </g>
    </g>
    <!-- insertion_sort vs size -->
    <g id="insertion_sort_vs_size">
      <defs>
        <clipPath id="clipPath3">
          <rect x="74.5" y="18.5" width="473" height="339"/>
        </clipPath>
      </defs>
      <g clip-path="url(#clipPath3)">
        <path d="M 130.296 297.674 L 188.445 297.674 L 201.726 270.557 L 223.574 270.557 L 232.795 277.161 
                 L 241.164 270.557 L 248.824 270.557 L 255.887 256.648 L 262.439 256.648 L 268.549 265.162 
                 L 274.273 250.044 L 279.656 244.649 L 284.737 242.28 L 289.549 244.649 L 298.467 240.087 
                 L 302.617 238.045 L 306.585 228.088 L 310.387 229.531 L 314.036 226.711 L 317.543 229.531 
                 L 320.92 226.711 L 324.175 224.136 L 327.317 212.137 L 330.354 220.65 L 333.293 216.562 
                 L 336.139 214.712 L 338.898 203.623 L 341.576 214.712 L 344.177 209.018 L 346.705 210.536 
                 L 349.165 206.198 L 351.56 206.198 L 353.893 207.575 L 356.167 207.575 L 358.386 203.013 
                 L 360.552 201.254 L 362.667 200.137 L 364.734 197.019 L 366.755 198.537 L 368.731 197.019 
                 L 370.666 194.65 L 372.56 189.637 L 374.415 195.109 L 376.233 191.215 L 378.015 193.754 
                 L 379.763 190.415 L 381.478 189.637 L 383.161 188.138 L 384.813 186.023 L 386.436 187.062 
                 L 388.03 185.02 L 389.596 185.685 L 391.136 181.902 L 392.65 183.42 L 394.14 177.766 
                 L 395.605 180.741 L 397.047 179.9 L 398.466 176.754 L 399.863 177.004 L 401.24 177.766 
                 L 402.595 176.754 L 403.931 173.686 L 405.247 175.775 L 406.544 173.911 L 407.823 176.017 
                 L 409.084 170.906 L 410.328 171.111 L 411.555 167.993 L 412.766 169.903 L 413.961 169.706 
                 L 415.14 166.198 L 416.304 167.808 L 417.453 166.373 L 418.588 165.341 L 419.708 165.004 
                 L 420.816 164.18 L 421.909 166.725 L 422.99 167.443 L 424.058 159.664 L 425.113 163.063 
                 L 426.157 163.696 L 427.188 159.804 L 428.208 160.371 L 429.216 159.525 L 430.214 160.658 
                 L 431.2 158.568 L 432.176 159.387 L 433.142 157.124 L 434.097 157.641 L 435.042 156.997 
                 L 435.978 155.748 L 436.904 155.87 L 437.821 153.511 L 438.728 151.965 L 439.627 154.785 
                 L 440.516 154.199 L 441.397 151.75 L 442.27 150.495 L 443.134 151.965 L 443.99 149.787 
                 L 444.838 148.9 L 445.678 149.588 L 446.51 148.229 L 447.335 146.212 L 448.153 145.685 
                 L 448.963 148.229 L 450.562 145.512 L 452.133 146.839 L 452.908 144.743 L 453.677 146.93 
                 L 454.439 143.343 L 455.195 143.263 L 455.945 141.024 L 456.689 142.316 L 457.426 139.786 
                 L 458.158 141.248 L 459.603 137.854 L 460.318 139.573 L 461.026 138.462 L 461.73 138.326 
                 L 462.427 137.456 L 463.12 137.522 L 463.807 139.221 L 464.489 136.293 L 465.166 135.728 
                 L 465.838 136.676 L 466.505 136.933 L 467.167 137.654 L 467.824 135.853 L 468.477 135.604 
                 L 469.125 134.213 L 469.768 133.34 L 470.407 135.915 L 471.041 134.689 L 471.671 132.548 
                 L 472.296 132.604 L 472.917 125.966 L 473.534 131.94 L 474.147 127.48 L 474.756 131.344 
                 L 475.361 125.391 L 475.961 129.575 L 476.558 130.033 L 477.151 128.242 L 477.74 128.729 
                 L 478.325 127.811 L 478.906 128.339 L 479.484 127.527 L 480.058 125.435 L 480.628 126.372 
                 L 481.195 124.783 L 481.758 126.828 L 482.318 125.699 L 482.874 125.479 L 483.427 125.655 
                 L 483.977 120.179 L 484.523 126.101 L 485.066 122.67 L 485.606 122.871 L 486.143 120.848 
                 L 486.676 124.655 L 487.206 123.563 L 487.734 123.235 L 488.258 121.456 L 488.779 122.71 
                 L 489.297 121.417 L 489.812 122.352 L 490.325 121.303 L 491.341 121.456 L 491.844 112.063 
                 L 492.345 120.586 L 492.844 119.777 L 493.339 120.363 L 493.832 117.915 L 494.322 117.075 
                 L 494.81 118.604 L 495.295 118.534 L 495.777 117.61 L 496.257 117.075 L 496.734 116.91 
                 L 497.209 116.583 L 497.681 115.875 L 498.151 115.685 L 498.618 114.6 L 499.546 116.844 
                 L 500.006 113.202 L 500.464 114.327 L 500.919 114.146 L 501.373 113.435 L 501.824 114.297 
                 L 502.273 114.387 "
          stroke="rgb(55,126,184)" fill="none" stroke-width="0.5"/>
      </g>
    </g>
    <!-- selection_sort vs size -->
    <g id="selection_sort_vs_size">
      <defs>
        <clipPath id="clipPath4">
          <rect x="74.5" y="18.5" width="473" height="339"/>
        </clipPath>
      </defs>
      <g clip-path="url(#clipPath4)">
        <path d="M 130.296 285.675 L 154.065 270.557 L 172.876 260.6 L 188.445 256.648 L 201.726 247.224 
                 L 213.307 242.28 L 223.574 234.341 L 232.795 231.049 L 241.164 224.136 L 248.824 221.767 
                 L 255.887 217.532 L 262.439 211.326 L 268.549 210.536 L 279.656 199.594 L 284.737 184.369 
                 L 289.549 193.315 L 294.118 190.813 L 298.467 190.023 L 302.617 186.711 L 306.585 182.803 
                 L 310.387 181.607 L 314.036 179.081 L 317.543 177.255 L 320.92 174.366 L 324.175 172.585 
                 L 327.317 167.625 L 330.354 166.198 L 333.293 165.51 L 336.139 164.18 L 338.898 147.48 
                 L 341.576 161.241 L 344.177 155.262 L 346.705 157.772 L 349.165 155.626 L 351.56 154.432 
                 L 353.893 152.289 L 356.167 151.643 L 358.386 149.39 L 360.552 148.998 L 362.667 146.839 
                 L 364.734 145.685 L 366.755 145.685 L 368.731 143.183 L 370.666 141.854 L 372.56 141.024 
                 L 376.233 138.805 L 378.015 137.456 L 379.763 136.356 L 383.161 133.861 L 384.813 132.941 
                 L 386.436 131.776 L 388.03 131.344 L 389.596 130.239 L 391.136 130.239 L 392.65 127.527 
                 L 397.047 124.74 L 398.466 123.605 L 399.863 122.911 L 401.24 123.195 L 402.595 121.036 
                 L 403.931 120.698 L 405.247 119.202 L 406.544 118.99 L 407.823 111.729 L 409.084 116.681 
                 L 410.328 116.976 L 411.555 116.42 L 412.766 114.357 L 413.961 114.844 L 415.14 113.789 
                 L 416.304 106.803 L 417.453 112.542 L 419.708 110.804 L 420.816 109.012 L 421.909 109.037 
                 L 422.99 108.786 L 424.058 106.803 L 425.113 108.02 L 426.157 105.633 L 427.188 105.253 
                 L 428.208 104.356 L 429.216 104.335 L 430.214 102.968 L 431.2 102.865 L 433.142 100.79 
                 L 434.097 100.885 L 435.042 100.278 L 435.978 99.0832 L 436.904 98.9214 L 438.728 97.8477 
                 L 439.627 98.0211 L 440.516 96.8784 L 441.397 96.2822 L 442.27 95.5375 L 443.134 95.7783 
                 L 443.99 94.3006 L 446.51 92.8348 L 447.335 92.1711 L 448.153 89.5509 L 448.963 91.1749 
                 L 449.766 90.7367 L 450.562 89.9851 L 451.35 89.866 L 452.133 87.3979 L 452.908 88.6379 
                 L 455.195 87.1922 L 455.945 85.2551 L 456.689 85.9754 L 457.426 85.0077 L 458.158 85.21 
                 L 458.883 84.6624 L 459.603 83.3522 L 460.318 83.8005 L 461.026 83.1517 L 461.73 83.2465 
                 L 462.427 82.558 L 463.807 81.7845 L 464.489 79.7374 L 465.166 81.0797 L 465.838 79.1343 
                 L 466.505 80.2194 L 467.167 79.8878 L 467.824 79.6999 L 468.477 78.8782 L 469.125 78.5882 
                 L 469.768 78.4712 L 470.407 77.2829 L 471.041 77.3866 L 471.671 76.4828 L 472.296 76.4157 
                 L 473.534 74.7936 L 474.147 74.4937 L 474.756 74.5409 L 475.361 74.2202 L 475.961 73.4826 
                 L 477.151 72.8519 L 477.74 73.1131 L 478.325 72.3657 L 479.484 72.0748 L 480.058 70.974 
                 L 480.628 70.4969 L 481.195 70.8696 L 481.758 70.1491 L 482.318 70.1694 L 482.874 67.4489 
                 L 483.427 68.6616 L 483.977 68.3729 L 484.523 67.7162 L 485.066 67.7225 L 485.606 67.4984 
                 L 486.143 67.0554 L 486.676 66.1592 L 487.206 66.2839 L 487.734 66.7275 L 488.258 66.1533 
                 L 488.779 65.7942 L 489.297 63.8849 L 489.812 65.2089 L 490.325 64.3271 L 490.834 63.9564 
                 L 491.341 63.9289 L 491.844 63.2016 L 492.345 63.3952 L 492.844 63.2338 L 493.339 61.6151 
                 L 493.832 62.3248 L 494.322 62.3196 L 494.81 61.2615 L 495.295 61.5643 L 495.777 61.1963 
                 L 496.257 61.0265 L 496.734 60.6257 L 497.209 59.8497 L 497.681 60.0707 L 498.151 59.7207 
                 L 499.083 58.4564 L 499.546 58.6903 L 500.006 58.5662 L 500.464 57.4905 L 500.919 57.8641 
                 L 501.373 57.5746 L 501.824 56.1003 L 502.273 56.904 "
          stroke="rgb(77,175,74)" fill="none" stroke-width="0.5"/>
      </g>
    </g>
    <!-- merge_sort vs size -->
    <g id="merge_sort_vs_size">
      <defs>
        <clipPath id="clipPath5">
          <rect x="74.5" y="18.5" width="473" height="339"/>
        </clipPath>
      </defs>
      <g clip-path="url(#clipPath5)">
        <path d="M 130.296 277.161 L 154.065 277.161 L 172.876 265.162 L 188.445 260.6 L 213.307 260.6 
                 L 223.574 256.648 L 232.795 247.224 L 241.164 244.649 L 248.824 240.087 L 255.887 238.045 
                 L 262.439 234.341 L 268.549 231.049 L 274.273 231.049 L 279.656 229.531 L 284.737 231.049 
                 L 289.549 226.711 L 294.118 226.711 L 298.467 222.928 L 302.617 221.767 L 306.585 222.928 
                 L 310.387 221.767 L 314.036 218.535 L 317.543 217.532 L 320.92 217.532 L 324.175 216.562 
                 L 327.317 213.828 L 330.354 212.97 L 333.293 212.97 L 336.139 211.326 L 338.898 195.575 
                 L 341.576 209.768 L 344.177 207.575 L 346.705 206.198 L 349.165 205.533 L 351.56 205.533 
                 L 353.893 203.623 L 356.167 204.246 L 358.386 203.013 L 360.552 202.415 L 362.667 202.415 
                 L 364.734 200.69 L 366.755 200.137 L 368.731 200.69 L 370.666 200.137 L 372.56 197.517 
                 L 374.415 196.53 L 376.233 196.53 L 378.015 196.049 L 379.763 196.049 L 381.478 195.575 
                 L 383.161 195.575 L 384.813 193.754 L 386.436 192.457 L 388.03 192.883 L 389.596 192.457 
                 L 391.136 192.457 L 392.65 192.037 L 394.14 190.813 L 395.605 191.624 L 397.047 190.023 
                 L 398.466 190.023 L 399.863 189.637 L 401.24 188.878 L 402.595 188.506 L 403.931 186.711 
                 L 405.247 186.711 L 406.544 186.365 L 407.823 185.02 L 409.084 186.023 L 410.328 186.023 
                 L 411.555 186.365 L 412.766 184.369 L 413.961 183.733 L 415.14 183.733 L 416.304 182.803 
                 L 417.453 182.5 L 418.588 181.902 L 419.708 182.5 L 420.816 181.607 L 421.909 182.199 
                 L 422.99 181.027 L 424.058 180.458 L 425.113 179.081 L 426.157 179.081 L 427.188 178.024 
                 L 428.208 178.024 L 429.216 177.509 L 430.214 176.506 L 431.2 176.261 L 432.176 176.506 
                 L 433.142 175.536 L 435.042 175.536 L 435.978 174.137 L 436.904 175.062 L 437.821 173.462 
                 L 439.627 174.366 L 440.516 174.366 L 441.397 172.37 L 442.27 173.462 L 443.134 172.585 
                 L 443.99 172.802 L 444.838 171.525 L 445.678 172.156 L 446.51 171.111 L 447.335 171.317 
                 L 448.153 170.1 L 448.963 170.702 L 449.766 169.316 L 450.562 169.903 L 451.35 168.932 
                 L 452.133 168.365 L 452.908 168.365 L 453.677 169.316 L 454.439 167.082 L 455.195 167.808 
                 L 455.945 167.082 L 456.689 167.443 L 457.426 166.725 L 458.158 167.082 L 458.883 166.025 
                 L 459.603 166.549 L 460.318 165.852 L 461.026 165.852 L 461.73 165.51 L 462.427 165.341 
                 L 463.12 163.063 L 463.807 165.004 L 464.489 164.507 L 465.166 164.672 L 465.838 163.696 
                 L 466.505 164.343 L 467.167 162.29 L 467.824 163.537 L 469.125 162.907 L 469.768 162.443 
                 L 471.041 162.443 L 471.671 162.138 L 472.917 161.241 L 473.534 160.228 L 474.147 160.371 
                 L 474.756 160.086 L 475.361 159.664 L 475.961 159.387 L 476.558 159.664 L 477.151 158.975 
                 L 477.74 159.664 L 478.325 158.975 L 478.906 159.111 L 479.484 158.839 L 480.058 158.167 
                 L 480.628 157.124 L 481.195 158.167 L 481.758 157.253 L 482.318 157.772 L 482.874 155.748 
                 L 483.427 156.366 L 483.977 155.993 L 484.523 156.491 L 485.066 155.504 L 485.606 155.993 
                 L 486.143 155.748 L 486.676 155.993 L 487.206 155.748 L 487.734 155.626 L 488.258 155.262 
                 L 488.779 155.504 L 489.297 154.785 L 489.812 154.432 L 490.325 154.549 L 490.834 153.739 
                 L 491.341 152.289 L 491.844 154.315 L 492.345 153.398 L 492.844 153.853 L 493.339 151.431 
                 L 493.832 153.061 L 494.322 152.617 L 494.81 152.508 L 495.295 152.072 L 495.777 152.617 
                 L 496.257 151.431 L 496.734 152.072 L 497.209 148.515 L 497.681 149.987 L 498.151 150.908 
                 L 498.618 151.537 L 499.083 149.987 L 499.546 150.804 L 500.006 150.189 L 500.464 148.9 
                 L 500.919 149.687 L 501.373 150.189 L 501.824 149.588 L 502.273 149.987 "
          stroke="rgb(152,78,163)" fill="none" stroke-width="0.5"/>
      </g>
    </g>
    <!-- quick_sort_array vs size -->
    <g id="quick_sort_array_vs_size">
      <defs>
        <clipPath id="clipPath6">
          <rect x="74.5" y="18.5" width="473" height="339"/>
        </clipPath>
      </defs>
      <g clip-path="url(#clipPath6)">
        <path d="M 130.296 213.828 L 154.065 211.326 L 172.876 204.882 L 188.445 196.53 L 201.726 195.575 
                 L 213.307 193.315 L 223.574 189.637 L 232.795 187.775 L 241.164 182.5 L 248.824 182.803 
                 L 255.887 175.536 L 262.439 173.911 L 268.549 172.802 L 274.273 168.365 L 279.656 169.706 
                 L 284.737 169.316 L 289.549 164.838 L 294.118 164.672 L 298.467 164.018 L 302.617 161.241 
                 L 306.585 161.094 L 310.387 159.945 L 314.036 160.803 L 317.543 159.945 L 320.92 156.366 
                 L 324.175 156.366 L 327.317 152.072 L 330.354 150.804 L 333.293 151.857 L 336.139 153.398 
                 L 338.898 150.088 L 344.177 148.998 L 349.165 147.203 L 351.56 147.112 L 353.893 145.426 
                 L 356.167 145.773 L 358.386 144.408 L 362.667 141.323 L 364.734 141.93 L 366.755 140.876 
                 L 368.731 141.248 L 370.666 139.503 L 372.56 140.217 L 374.415 140.001 L 376.233 137.39 
                 L 378.015 138.326 L 379.763 137.128 L 381.478 136.74 L 383.161 135.978 L 384.813 134.095 
                 L 386.436 135.978 L 388.03 134.51 L 389.596 133.57 L 391.136 132.159 L 392.65 133.055 
                 L 394.14 133.686 L 395.605 131.237 L 397.047 129.829 L 398.466 130.085 L 399.863 131.613 
                 L 401.24 128.291 L 402.595 129.424 L 403.931 128.002 L 405.247 128.827 L 407.823 126.92 
                 L 409.084 127.245 L 410.328 126.69 L 411.555 126.553 L 412.766 126.69 L 413.961 125.611 
                 L 415.14 125.391 L 416.304 124.826 L 417.453 124.869 L 418.588 125.303 L 419.708 115.496 
                 L 420.816 124.23 L 421.909 124.272 L 422.99 122.59 L 424.058 123.113 L 425.113 122.431 
                 L 426.157 121.881 L 427.188 120.698 L 428.208 120.735 L 430.214 119.381 L 431.2 119.777 
                 L 433.142 119.524 L 434.097 119.167 L 435.042 118.154 L 435.978 118.051 L 437.821 117.983 
                 L 438.728 117.208 L 439.627 115.748 L 440.516 118.43 L 441.397 115.939 L 442.27 116.356 
                 L 443.134 115.875 L 443.99 114.661 L 444.838 114.63 L 445.678 114.844 L 446.51 115.34 
                 L 447.335 114.267 L 448.963 114.027 L 449.766 113.115 L 450.562 113.319 L 451.35 112.942 
                 L 452.133 111.619 L 452.908 111.702 L 453.677 112.913 L 455.195 111.482 L 455.945 111.454 
                 L 456.689 110.858 L 457.426 111.263 L 458.158 111.182 L 458.883 110.116 L 459.603 109.804 
                 L 460.318 109.649 L 461.026 109.778 L 461.73 109.752 L 462.427 110.142 L 463.12 110.405 
                 L 463.807 110.195 L 464.489 109.341 L 465.166 109.623 L 465.838 109.546 L 466.505 109.037 
                 L 467.167 105.927 L 467.824 107.85 L 468.477 103.486 L 469.125 107.298 L 469.768 107.923 
                 L 470.407 107.393 L 471.041 106.523 L 471.671 106.756 L 472.296 106.849 L 472.917 105.164 
                 L 473.534 105.431 L 474.147 105.881 L 474.756 104.66 L 475.361 104.856 L 475.961 105.364 
                 L 476.558 104.378 L 477.151 104.725 L 477.74 104.573 L 478.906 104.594 L 479.484 103.528 
                 L 480.058 103.696 L 480.628 103.717 L 481.195 103.154 L 481.758 101.859 L 482.318 101.213 
                 L 482.874 102.057 L 483.427 102.117 L 483.977 101.938 L 484.523 102.318 L 485.066 102.117 
                 L 485.606 98.9393 L 486.143 101.232 L 486.676 101.958 L 487.206 101.348 L 487.734 101.524 
                 L 488.258 100.222 L 488.779 101.135 L 489.297 100.26 L 489.812 100.599 L 490.325 99.7392 
                 L 490.834 99.7945 L 491.341 100.751 L 491.844 100.467 L 492.345 100.448 L 492.844 99.4094 
                 L 493.339 99.5006 L 493.832 99.9426 L 494.322 99.3002 L 494.81 97.3336 L 495.295 98.1605 
                 L 495.777 97.9169 L 496.257 97.5382 L 496.734 98.3357 L 497.209 98.636 L 497.681 96.5788 
                 L 498.151 98.0559 L 498.618 96.9454 L 499.546 97.1136 L 500.006 97.0126 L 500.464 97.2488 
                 L 501.373 96.6451 L 501.824 96.612 L 502.273 93.7086 "
          stroke="rgb(255,127,0)" fill="none" stroke-width="0.5"/>
      </g>
    </g>
    <!-- quick_sort_in_place vs size -->
    <g id="quick_sort_in_place_vs_size">
      <defs>
        <clipPath id="clipPath7">
          <rect x="74.5" y="18.5" width="473" height="339"/>
        </clipPath>
      </defs>
      <g clip-path="url(#clipPath7)">
        <path d="M 130.296 222.928 L 154.065 210.536 L 172.876 205.533 L 188.445 198.537 L 201.726 200.69 
                 L 213.307 196.049 L 223.574 189.255 L 232.795 186.365 L 241.164 182.803 L 248.824 183.733 
                 L 255.887 160.086 L 262.439 174.137 L 268.549 176.261 L 274.273 171.525 L 279.656 170.3 
                 L 284.737 170.1 L 289.549 168.365 L 294.118 165.51 L 298.467 166.549 L 302.617 164.507 
                 L 306.585 161.686 L 310.387 163.537 L 314.036 158.839 L 317.543 158.035 L 320.92 157.382 
                 L 324.175 158.167 L 327.317 158.434 L 330.354 141.474 L 333.293 154.904 L 336.139 151.116 
                 L 341.576 150.804 L 344.177 145.86 L 346.705 148.998 L 349.165 148.998 L 351.56 147.665 
                 L 353.893 147.112 L 356.167 144.828 L 358.386 146.036 L 360.552 145.168 L 362.667 145.082 
                 L 364.734 142.55 L 366.755 143.024 L 368.731 141.248 L 370.666 142.316 L 372.56 140.073 
                 L 374.415 139.151 L 376.233 139.644 L 378.015 139.151 L 379.763 139.012 L 381.478 137.654 
                 L 383.161 136.547 L 384.813 136.611 L 386.436 136.547 L 388.03 135.915 L 389.596 135.604 
                 L 391.136 135.174 L 392.65 134.51 L 394.14 133.57 L 395.605 133.455 L 397.047 132.215 
                 L 398.466 132.998 L 399.863 132.27 L 401.24 131.831 L 402.595 129.931 L 403.931 129.525 
                 L 405.247 129.525 L 406.544 130.291 L 407.823 127.811 L 409.084 129.676 L 410.328 128.387 
                 L 411.555 119.202 L 412.766 127.527 L 413.961 127.245 L 415.14 126.782 L 416.304 125.744 
                 L 417.453 125.655 L 419.708 124.783 L 420.816 123.978 L 421.909 124.826 L 422.99 123.154 
                 L 424.058 124.612 L 425.113 122.871 L 426.157 122.75 L 427.188 122.75 L 428.208 121.998 
                 L 429.216 122.194 L 430.214 120.548 L 431.2 120.923 L 432.176 120.548 L 433.142 119.381 
                 L 434.097 119.345 L 435.042 119.813 L 435.978 118.849 L 436.904 118.708 L 437.821 119.167 
                 L 439.627 119.167 L 440.516 118.884 L 441.397 117.643 L 442.27 117.745 L 443.134 110.804 
                 L 443.99 116.453 L 444.838 116.13 L 445.678 112.119 L 446.51 115.717 L 447.335 115.748 
                 L 448.153 114.478 L 448.963 114.418 L 449.766 110.618 L 450.562 113.967 L 451.35 113.641 
                 L 452.133 113.789 L 452.908 113.553 L 453.677 114.176 L 454.439 113.641 L 455.195 113.937 
                 L 455.945 113.26 L 456.689 113.173 L 457.426 108.736 L 458.158 112.77 L 459.603 110.3 
                 L 460.318 110.591 L 461.73 110.992 L 462.427 108.911 L 463.12 111.4 L 463.807 111.4 
                 L 464.489 110.778 L 465.166 109.214 L 465.838 110.116 L 466.505 110.274 L 467.167 107.561 
                 L 467.824 109.986 L 468.477 105.995 L 469.125 108.861 L 469.768 104.185 L 470.407 108.562 
                 L 471.041 108.886 L 471.671 108.761 L 472.296 107.585 L 472.917 106.803 L 473.534 107.037 
                 L 474.147 106.109 L 474.756 106.662 L 475.961 106.686 L 476.558 105.186 L 477.151 105.723 
                 L 477.74 106.04 L 478.325 102.968 L 478.906 106.826 L 479.484 104.66 L 480.058 104.834 
                 L 480.628 103.216 L 481.195 104.099 L 481.758 104.4 L 482.318 105.054 L 482.874 103.971 
                 L 483.427 103.612 L 483.977 102.763 L 484.523 100.372 L 485.066 103.34 L 486.143 102.277 
                 L 486.676 103.361 L 487.206 102.825 L 487.734 103.299 L 488.258 100.732 L 488.779 102.968 
                 L 489.297 101.998 L 489.812 101.446 L 490.325 101.998 L 490.834 101.485 L 491.341 101.544 
                 L 491.844 101.116 L 492.345 97.2827 L 492.844 101.155 L 493.339 100.11 L 493.832 99.9055 
                 L 494.322 100.77 L 494.81 100.147 L 495.295 100.278 L 495.777 99.3366 L 496.257 100.486 
                 L 496.734 99.9612 L 497.209 99.7392 L 497.681 98.283 L 498.151 99.3184 L 498.618 99.0832 
                 L 499.083 98.636 L 499.546 98.7783 L 500.006 98.7783 L 500.464 98.3709 L 500.919 98.6005 
                 L 502.273 96.4466 "
          stroke="rgb(152,169,234)" fill="none" stroke-width="0.5"/>
      </g>
    </g>
    <!-- Legend -->
    <g id="Legend">
      <rect x="95" y="31" width="200" height="90" stroke="black" fill="none" stroke-width="0.5"/>
      <defs>
        <clipPath id="clipPath8">
          <rect x="95" y="31" width="200" height="90"/>
        </clipPath>
      </defs>
      <g clip-path="url(#clipPath8)">
        <path d="M 100 39.5 L 114 39.5 "
          stroke="rgb(228,28,28)" fill="none" stroke-width="0.5"/>
        <g font-family="Helvetica" font-size="12" fill="black">
          <text x="119" y="44.3037">bubble</text>
          <text x="155.035" y="46.8139" font-size="9">s</text>
          <text x="159.535" y="44.3037">ort vs size</text>
        </g>
        <path d="M 100 54.5 L 114 54.5 "
          stroke="rgb(55,126,184)" fill="none" stroke-width="0.5"/>
        <g font-family="Helvetica" font-size="12" fill="black">
          <text x="119" y="58.7037">insertion</text>
          <text x="164.357" y="61.2139" font-size="9">s</text>
          <text x="168.857" y="58.7037">ort vs size</text>
        </g>
        <path d="M 100 68.5 L 114 68.5 "
          stroke="rgb(77,175,74)" fill="none" stroke-width="0.5"/>
        <g font-family="Helvetica" font-size="12" fill="black">
          <text x="119" y="73.1037">selection</text>
          <text x="166.361" y="75.6139" font-size="9">s</text>
          <text x="170.861" y="73.1037">ort vs size</text>
        </g>
        <path d="M 100 83.5 L 114 83.5 "
          stroke="rgb(152,78,163)" fill="none" stroke-width="0.5"/>
        <g font-family="Helvetica" font-size="12" fill="black">
          <text x="119" y="87.5037">merge</text>
          <text x="153.014" y="90.0139" font-size="9">s</text>
          <text x="157.514" y="87.5037">ort vs size</text>
        </g>
        <path d="M 100 97.5 L 114 97.5 "
          stroke="rgb(255,127,0)" fill="none" stroke-width="0.5"/>
        <g font-family="Helvetica" font-size="12" fill="black">
          <text x="119" y="101.904">quick</text>
          <text x="147.014" y="104.414" font-size="9">s</text>
          <text x="151.514" y="101.904">ort</text>
          <text x="165.518" y="104.414" font-size="9">a</text>
          <text x="170.523" y="101.904">rray vs size</text>
        </g>
        <path d="M 100 111.5 L 114 111.5 "
          stroke="rgb(152,169,234)" fill="none" stroke-width="0.5"/>
        <g font-family="Helvetica" font-size="12" fill="black">
          <text x="119" y="116.304">quick</text>
          <text x="147.014" y="118.814" font-size="9">s</text>
          <text x="151.514" y="116.304">ort</text>
          <text x="165.518" y="118.814" font-size="9">i</text>
          <text x="167.517" y="116.304">n</text>
          <text x="174.191" y="118.814" font-size="9">p</text>
          <text x="179.196" y="116.304">lace vs size</text>
        </g>
      </g>
    </g>
  </g>
  <!-- Foreground -->
  <g id="Foreground">
    <!-- Y Axis -->
    <g id="Y_Axis">
      <g transform="translate(14.0188,188) rotate(-90) translate(-14.0188,-188)" font-family="Helvetica" font-size="12" fill="black">
        <text x="-9.98711" y="188">time cost</text>
      </g>
      <!-- Y Labels -->
      <g id="Y_Labels">
        <g font-family="Helvetica" font-size="12" fill="black">
          <text x="40.4911" y="343.004">10</text>
          <text x="53.8388" y="337.67" font-size="9">−7</text>
        </g>
        <g font-family="Helvetica" font-size="12" fill="black">
          <text x="40.4911" y="274.861">10</text>
          <text x="53.8388" y="269.527" font-size="9">−6</text>
        </g>
        <g font-family="Helvetica" font-size="12" fill="black">
          <text x="40.4911" y="206.719">10</text>
          <text x="53.8388" y="201.384" font-size="9">−5</text>
        </g>
        <g font-family="Helvetica" font-size="12" fill="black">
          <text x="40.4911" y="138.576">10</text>
          <text x="53.8388" y="133.242" font-size="9">−4</text>
        </g>
        <g font-family="Helvetica" font-size="12" fill="black">
          <text x="40.4911" y="70.4333">10</text>
          <text x="53.8388" y="65.0993" font-size="9">−3</text>
        </g>
      </g>
      <path d="M 70.5 353.817 L 74.5 353.817 M 70.5 349.255 L 74.5 349.255 M 70.5 345.304 L 74.5 345.304 
               M 70.5 341.818 L 74.5 341.818 M 66.5 338.7 L 74.5 338.7 M 70.5 318.187 L 74.5 318.187 
               M 70.5 306.188 L 74.5 306.188 M 70.5 297.674 L 74.5 297.674 M 70.5 291.07 L 74.5 291.07 
               M 70.5 285.675 L 74.5 285.675 M 70.5 281.113 L 74.5 281.113 M 70.5 277.161 L 74.5 277.161 
               M 70.5 273.675 L 74.5 273.675 M 66.5 270.557 L 74.5 270.557 M 70.5 250.044 L 74.5 250.044 
               M 70.5 238.045 L 74.5 238.045 M 70.5 229.531 L 74.5 229.531 M 70.5 222.928 L 74.5 222.928 
               M 70.5 217.532 L 74.5 217.532 M 70.5 212.97 L 74.5 212.97 M 70.5 209.018 L 74.5 209.018 
               M 70.5 205.533 L 74.5 205.533 M 66.5 202.415 L 74.5 202.415 M 70.5 181.902 L 74.5 181.902 
               M 70.5 169.903 L 74.5 169.903 M 70.5 161.389 L 74.5 161.389 M 70.5 154.785 L 74.5 154.785 
               M 70.5 149.39 L 74.5 149.39 M 70.5 144.828 L 74.5 144.828 M 70.5 140.876 L 74.5 140.876 
               M 70.5 137.39 L 74.5 137.39 M 66.5 134.272 L 74.5 134.272 M 70.5 113.759 L 74.5 113.759 
               M 70.5 101.76 L 74.5 101.76 M 70.5 93.2463 L 74.5 93.2463 M 70.5 86.6426 L 74.5 86.6426 
               M 70.5 81.247 L 74.5 81.247 M 70.5 76.685 L 74.5 76.685 M 70.5 72.7333 L 74.5 72.7333 
               M 70.5 69.2477 L 74.5 69.2477 M 66.5 66.1296 L 74.5 66.1296 M 70.5 45.6167 L 74.5 45.6167 
               M 70.5 33.6173 L 74.5 33.6173 M 70.5 25.1037 L 74.5 25.1037 M 70.5 18.5 L 74.5 18.5 "
        stroke="black" fill="none" stroke-width="0.5"/>
    </g>
    <!-- X Axis -->
    <g id="X_Axis">
      <g font-family="Helvetica" font-size="12" fill="black">
        <text x="270.646" y="395">size of integers</text>
      </g>
      <g>
        <g font-family="Helvetica" font-size="12" fill="black">
          <text x="123.623" y="376.69">10</text>
        </g>
        <g font-family="Helvetica" font-size="12" fill="black">
          <text x="328.887" y="376.69">100</text>
        </g>
        <g font-family="Helvetica" font-size="12" fill="black">
          <text x="534.152" y="376.69">1000</text>
        </g>
      </g>
      <path d="M 130.296 365.5 L 130.296 357.5 M 338.898 365.5 L 338.898 357.5 M 547.5 365.5 L 547.5 357.5 
               M 84.0184 361.5 L 84.0184 357.5 M 97.9836 361.5 L 97.9836 357.5 M 110.081 361.5 L 110.081 357.5 
               M 120.751 361.5 L 120.751 357.5 M 193.092 361.5 L 193.092 357.5 M 229.825 361.5 L 229.825 357.5 
               M 255.887 361.5 L 255.887 357.5 M 276.103 361.5 L 276.103 357.5 M 292.62 361.5 L 292.62 357.5 
               M 306.585 361.5 L 306.585 357.5 M 318.683 361.5 L 318.683 357.5 M 329.353 361.5 L 329.353 357.5 
               M 401.694 361.5 L 401.694 357.5 M 438.427 361.5 L 438.427 357.5 M 464.489 361.5 L 464.489 357.5 
               M 484.705 361.5 L 484.705 357.5 M 501.222 361.5 L 501.222 357.5 M 515.187 361.5 L 515.187 357.5 
               M 527.284 361.5 L 527.284 357.5 M 537.955 361.5 L 537.955 357.5 "
        stroke="black" fill="none" stroke-width="0.5"/>
    </g>
    <g font-family="Helvetica" font-size="12" fill="black">
      <text x="239.311" y="14.0188">time vs size in small period</text>
    </g>
    <path d="M 547.5 357.5 L 547.5 18.5 L 74.5 18.5 L 74.5 357.5 L 547.5 357.5 z "
      stroke="black" stroke-linecap="square" fill="none" stroke-width="0.5"/>
  </g>
</g>
</svg>
